<svg version="1.1" id="Layer_1" xmlns="http://www.w3.org/2000/svg" xmlns:xlink="http://www.w3.org/1999/xlink" x="0px" y="0px"
	 viewBox="0 0 107.58 21" width="100%" height="100%" preserveAspectRatio="none">
<g>
	<path d="M10.4,0.86c0.93,0.57,1.65,1.37,2.17,2.39c0.52,1.02,0.78,2.19,0.78,3.51c0,1.28-0.25,2.41-0.73,3.39
		c-0.49,0.98-1.18,1.74-2.06,2.26c-0.88,0.53-1.9,0.8-3.06,0.8H5.82c-0.12,0-0.18,0.06-0.18,0.18v7.17c0,0.14-0.04,0.25-0.12,0.33
		C5.44,20.96,5.33,21,5.19,21H0.45c-0.14,0-0.25-0.04-0.33-0.12C0.04,20.8,0,20.69,0,20.55V0.45C0,0.31,0.04,0.2,0.12,0.12
		C0.2,0.04,0.31,0,0.45,0H7.2C8.4,0,9.46,0.29,10.4,0.86z M7.3,8.36c0.27-0.33,0.41-0.83,0.41-1.48c0-0.66-0.14-1.17-0.41-1.52
		C7.03,5.01,6.67,4.83,6.21,4.83H5.82c-0.12,0-0.18,0.06-0.18,0.18v3.66c0,0.12,0.06,0.18,0.18,0.18h0.39
		C6.67,8.85,7.03,8.69,7.3,8.36z"/>
	<path d="M22.26,20.58l-0.33-2.25c0-0.04-0.02-0.08-0.06-0.12c-0.04-0.04-0.09-0.06-0.15-0.06h-2.64c-0.06,0-0.11,0.02-0.15,0.06
		c-0.04,0.04-0.06,0.08-0.06,0.12l-0.3,2.25C18.55,20.86,18.39,21,18.09,21h-4.71c-0.32,0-0.45-0.16-0.39-0.48l4.26-20.13
		C17.31,0.13,17.48,0,17.76,0h5.46c0.28,0,0.45,0.13,0.51,0.39l4.26,20.13v0.12c0,0.24-0.14,0.36-0.42,0.36h-4.83
		C22.44,21,22.28,20.86,22.26,20.58z M19.68,13.83h1.41c0.14,0,0.19-0.06,0.15-0.18l-0.81-5.4c-0.02-0.08-0.05-0.12-0.09-0.12
		c-0.04,0-0.07,0.04-0.09,0.12l-0.72,5.4C19.53,13.77,19.58,13.83,19.68,13.83z"/>
	<path d="M29.34,20.88c-0.08-0.08-0.12-0.19-0.12-0.33V0.45c0-0.14,0.04-0.25,0.12-0.33C29.42,0.04,29.53,0,29.67,0h5.91
		c1.32,0,2.48,0.25,3.49,0.75c1.01,0.5,1.79,1.21,2.36,2.12c0.56,0.91,0.84,1.96,0.84,3.13v9c0,1.18-0.28,2.23-0.84,3.13
		c-0.56,0.91-1.35,1.62-2.36,2.12C38.06,20.75,36.9,21,35.58,21h-5.91C29.53,21,29.42,20.96,29.34,20.88z M35.04,16.17l0.42-0.03
		c0.32-0.02,0.59-0.17,0.81-0.45c0.22-0.28,0.34-0.64,0.36-1.08V6.36c0-0.46-0.11-0.83-0.33-1.11c-0.22-0.28-0.51-0.42-0.87-0.42
		h-0.39c-0.12,0-0.18,0.06-0.18,0.18v10.98C34.86,16.11,34.92,16.17,35.04,16.17z"/>
	<path d="M43.83,20.88c-0.08-0.08-0.12-0.19-0.12-0.33V0.45c0-0.14,0.04-0.25,0.12-0.33C43.91,0.04,44.02,0,44.16,0h5.91
		c1.32,0,2.48,0.25,3.49,0.75c1.01,0.5,1.79,1.21,2.36,2.12c0.56,0.91,0.84,1.96,0.84,3.13v9c0,1.18-0.28,2.23-0.84,3.13
		c-0.56,0.91-1.35,1.62-2.36,2.12c-1.01,0.5-2.17,0.75-3.49,0.75h-5.91C44.02,21,43.91,20.96,43.83,20.88z M49.53,16.17l0.42-0.03
		c0.32-0.02,0.59-0.17,0.81-0.45c0.22-0.28,0.34-0.64,0.36-1.08V6.36c0-0.46-0.11-0.83-0.33-1.11c-0.22-0.28-0.51-0.42-0.87-0.42
		h-0.39c-0.12,0-0.18,0.06-0.18,0.18v10.98C49.35,16.11,49.41,16.17,49.53,16.17z"/>
	<path d="M58.32,20.88c-0.08-0.08-0.12-0.19-0.12-0.33V0.45c0-0.14,0.04-0.25,0.12-0.33C58.4,0.04,58.51,0,58.65,0h4.74
		c0.14,0,0.25,0.04,0.33,0.12c0.08,0.08,0.12,0.19,0.12,0.33v15.54c0,0.12,0.06,0.18,0.18,0.18h5.85c0.14,0,0.25,0.04,0.33,0.12
		c0.08,0.08,0.12,0.19,0.12,0.33v3.93c0,0.14-0.04,0.25-0.12,0.33C70.12,20.96,70.01,21,69.87,21H58.65
		C58.51,21,58.4,20.96,58.32,20.88z"/>
	<path d="M71.7,20.88c-0.08-0.08-0.12-0.19-0.12-0.33V0.45c0-0.14,0.04-0.25,0.12-0.33C71.78,0.04,71.89,0,72.03,0h4.74
		c0.14,0,0.25,0.04,0.33,0.12c0.08,0.08,0.12,0.19,0.12,0.33v20.1c0,0.14-0.04,0.25-0.12,0.33C77.02,20.96,76.91,21,76.77,21h-4.74
		C71.89,21,71.78,20.96,71.7,20.88z"/>
	<path d="M87.6,0.12C87.68,0.04,87.79,0,87.93,0h4.68c0.14,0,0.25,0.04,0.33,0.12c0.08,0.08,0.12,0.19,0.12,0.33v20.1
		c0,0.14-0.04,0.25-0.12,0.33C92.86,20.96,92.75,21,92.61,21h-5.34c-0.26,0-0.42-0.13-0.48-0.39l-2.28-9.09
		c-0.02-0.06-0.06-0.09-0.12-0.09c-0.06,0-0.09,0.04-0.09,0.12l0.06,9c0,0.14-0.04,0.25-0.12,0.33C84.16,20.96,84.05,21,83.91,21
		h-4.68c-0.14,0-0.25-0.04-0.33-0.12c-0.08-0.08-0.12-0.19-0.12-0.33V0.45c0-0.14,0.04-0.25,0.12-0.33C78.98,0.04,79.09,0,79.23,0
		h5.28c0.26,0,0.42,0.13,0.48,0.39l2.31,9.12c0.02,0.08,0.06,0.12,0.12,0.12c0.06,0,0.09-0.04,0.09-0.12l-0.03-9.06
		C87.48,0.31,87.52,0.2,87.6,0.12z"/>
	<path d="M96.24,19.37c-1.2-1.09-1.8-2.54-1.8-4.36V5.95c0-1.82,0.6-3.27,1.8-4.34C97.44,0.54,99.03,0,101.01,0
		c1.3,0,2.45,0.24,3.43,0.73c0.99,0.49,1.76,1.19,2.31,2.1c0.55,0.91,0.83,1.97,0.83,3.18v0.97c0,0.14-0.04,0.24-0.12,0.32
		c-0.08,0.08-0.19,0.12-0.33,0.12h-4.74c-0.14,0-0.25-0.04-0.33-0.12c-0.08-0.08-0.12-0.19-0.12-0.32V5.95
		c0-0.37-0.08-0.67-0.25-0.89s-0.4-0.34-0.67-0.34c-0.28,0-0.51,0.11-0.67,0.34c-0.17,0.22-0.25,0.52-0.25,0.89v9.09
		c0,0.37,0.08,0.67,0.25,0.89c0.17,0.22,0.39,0.34,0.67,0.34c0.28,0,0.5-0.11,0.67-0.34c0.17-0.22,0.25-0.52,0.25-0.89v-1.44
		c0-0.12-0.06-0.18-0.18-0.18h-0.24c-0.14,0-0.25-0.04-0.33-0.12c-0.08-0.08-0.12-0.19-0.12-0.32V9.62c0-0.14,0.04-0.24,0.12-0.32
		c0.08-0.08,0.19-0.12,0.33-0.12h5.61c0.14,0,0.25,0.04,0.33,0.12c0.08,0.08,0.12,0.19,0.12,0.32v5.4c0,1.19-0.28,2.24-0.83,3.15
		c-0.55,0.91-1.32,1.61-2.31,2.1c-0.99,0.49-2.13,0.73-3.43,0.73C99.03,21,97.44,20.46,96.24,19.37z"/>
</g>
</svg>
