<svg version="1.1" id="Layer_1" xmlns="http://www.w3.org/2000/svg" xmlns:xlink="http://www.w3.org/1999/xlink" x="0px" y="0px"
	 viewBox="0 0 96.81 21.24" width="100%" height="100%" preserveAspectRatio="none">
<g>
	<path d="M7.71,20.61l-1.83-7.53c-0.04-0.1-0.08-0.15-0.12-0.15c-0.08,0-0.12,0.06-0.12,0.18v7.44c0,0.14-0.04,0.25-0.12,0.33
		S5.33,21,5.19,21H0.45c-0.14,0-0.25-0.04-0.33-0.12C0.04,20.8,0,20.69,0,20.55V0.45C0,0.31,0.04,0.2,0.12,0.12
		C0.2,0.04,0.31,0,0.45,0H7.2c1.2,0,2.27,0.29,3.19,0.85c0.93,0.57,1.65,1.36,2.18,2.37c0.52,1.01,0.78,2.17,0.78,3.46
		c0,1.1-0.19,2.08-0.57,2.95c-0.38,0.87-0.93,1.58-1.65,2.12c-0.08,0.06-0.11,0.14-0.09,0.24l2.43,8.49
		c0.02,0.04,0.03,0.09,0.03,0.15c0,0.24-0.14,0.36-0.42,0.36H8.19C7.93,21,7.77,20.87,7.71,20.61z M5.82,4.83
		c-0.12,0-0.18,0.06-0.18,0.18v3.45c0,0.12,0.06,0.18,0.18,0.18h0.39c0.44,0,0.8-0.17,1.08-0.5c0.28-0.33,0.42-0.79,0.42-1.4
		c0-0.62-0.14-1.1-0.41-1.42C7.04,5,6.67,4.83,6.21,4.83H5.82z"/>
	<path d="M17.73,20.43c-0.98-0.54-1.74-1.3-2.28-2.28c-0.54-0.98-0.81-2.11-0.81-3.39V0.45c0-0.14,0.04-0.25,0.12-0.33
		C14.84,0.04,14.95,0,15.09,0h4.74c0.14,0,0.25,0.04,0.33,0.12c0.08,0.08,0.12,0.19,0.12,0.33V15.3c0,0.34,0.08,0.61,0.24,0.81
		c0.16,0.2,0.37,0.3,0.63,0.3c0.26,0,0.46-0.1,0.62-0.3c0.15-0.2,0.22-0.47,0.22-0.81V0.45c0-0.14,0.04-0.25,0.12-0.33
		C22.19,0.04,22.3,0,22.44,0h4.74c0.14,0,0.25,0.04,0.33,0.12c0.08,0.08,0.12,0.19,0.12,0.33v14.31c0,1.28-0.27,2.41-0.81,3.39
		c-0.54,0.98-1.3,1.74-2.28,2.28c-0.98,0.54-2.11,0.81-3.39,0.81C19.85,21.24,18.71,20.97,17.73,20.43z"/>
	<path d="M37.95,0.12C38.03,0.04,38.14,0,38.28,0h4.68c0.14,0,0.25,0.04,0.33,0.12c0.08,0.08,0.12,0.19,0.12,0.33v20.1
		c0,0.14-0.04,0.25-0.12,0.33C43.21,20.96,43.1,21,42.96,21h-5.34c-0.26,0-0.42-0.13-0.48-0.39l-2.28-9.09
		c-0.02-0.06-0.06-0.09-0.12-0.09s-0.09,0.04-0.09,0.12l0.06,9c0,0.14-0.04,0.25-0.12,0.33C34.51,20.96,34.4,21,34.26,21h-4.68
		c-0.14,0-0.25-0.04-0.33-0.12c-0.08-0.08-0.12-0.19-0.12-0.33V0.45c0-0.14,0.04-0.25,0.12-0.33C29.33,0.04,29.44,0,29.58,0h5.28
		c0.26,0,0.42,0.13,0.48,0.39l2.31,9.12c0.02,0.08,0.06,0.12,0.12,0.12s0.09-0.04,0.09-0.12l-0.03-9.06
		C37.83,0.31,37.87,0.2,37.95,0.12z"/>
	<path d="M53.79,0.12C53.87,0.04,53.98,0,54.12,0h4.68c0.14,0,0.25,0.04,0.33,0.12c0.08,0.08,0.12,0.19,0.12,0.33v20.1
		c0,0.14-0.04,0.25-0.12,0.33C59.05,20.96,58.94,21,58.8,21h-5.34c-0.26,0-0.42-0.13-0.48-0.39l-2.28-9.09
		c-0.02-0.06-0.06-0.09-0.12-0.09s-0.09,0.04-0.09,0.12l0.06,9c0,0.14-0.04,0.25-0.12,0.33C50.35,20.96,50.24,21,50.1,21h-4.68
		c-0.14,0-0.25-0.04-0.33-0.12c-0.08-0.08-0.12-0.19-0.12-0.33V0.45c0-0.14,0.04-0.25,0.12-0.33C45.17,0.04,45.28,0,45.42,0h5.28
		c0.26,0,0.42,0.13,0.48,0.39l2.31,9.12c0.02,0.08,0.06,0.12,0.12,0.12s0.09-0.04,0.09-0.12l-0.03-9.06
		C53.67,0.31,53.71,0.2,53.79,0.12z"/>
	<path d="M60.93,20.88c-0.08-0.08-0.12-0.19-0.12-0.33V0.45c0-0.14,0.04-0.25,0.12-0.33C61.01,0.04,61.12,0,61.26,0H66
		c0.14,0,0.25,0.04,0.33,0.12c0.08,0.08,0.12,0.19,0.12,0.33v20.1c0,0.14-0.04,0.25-0.12,0.33S66.14,21,66,21h-4.74
		C61.12,21,61.01,20.96,60.93,20.88z"/>
	<path d="M76.83,0.12C76.91,0.04,77.02,0,77.16,0h4.68c0.14,0,0.25,0.04,0.33,0.12c0.08,0.08,0.12,0.19,0.12,0.33v20.1
		c0,0.14-0.04,0.25-0.12,0.33C82.09,20.96,81.98,21,81.84,21H76.5c-0.26,0-0.42-0.13-0.48-0.39l-2.28-9.09
		c-0.02-0.06-0.06-0.09-0.12-0.09c-0.06,0-0.09,0.04-0.09,0.12l0.06,9c0,0.14-0.04,0.25-0.12,0.33S73.28,21,73.14,21h-4.68
		c-0.14,0-0.25-0.04-0.33-0.12c-0.08-0.08-0.12-0.19-0.12-0.33V0.45c0-0.14,0.04-0.25,0.12-0.33C68.21,0.04,68.32,0,68.46,0h5.28
		c0.26,0,0.42,0.13,0.48,0.39l2.31,9.12c0.02,0.08,0.06,0.12,0.12,0.12c0.06,0,0.09-0.04,0.09-0.12l-0.03-9.06
		C76.71,0.31,76.75,0.2,76.83,0.12z"/>
	<path d="M85.47,19.37c-1.2-1.09-1.8-2.54-1.8-4.36V5.95c0-1.82,0.6-3.27,1.8-4.34C86.67,0.54,88.26,0,90.24,0
		c1.3,0,2.45,0.24,3.43,0.73c0.99,0.49,1.76,1.19,2.31,2.1c0.55,0.91,0.83,1.97,0.83,3.18v0.97c0,0.14-0.04,0.24-0.12,0.32
		c-0.08,0.08-0.19,0.12-0.33,0.12h-4.74c-0.14,0-0.25-0.04-0.33-0.12c-0.08-0.08-0.12-0.19-0.12-0.32V5.95
		c0-0.37-0.08-0.67-0.25-0.89s-0.4-0.34-0.67-0.34c-0.28,0-0.51,0.11-0.67,0.34c-0.17,0.22-0.25,0.52-0.25,0.89v9.09
		c0,0.37,0.08,0.67,0.25,0.89c0.17,0.23,0.39,0.34,0.67,0.34c0.28,0,0.5-0.11,0.67-0.34c0.17-0.22,0.25-0.52,0.25-0.89v-1.44
		c0-0.12-0.06-0.18-0.18-0.18h-0.24c-0.14,0-0.25-0.04-0.33-0.12c-0.08-0.08-0.12-0.19-0.12-0.32V9.62c0-0.14,0.04-0.24,0.12-0.32
		c0.08-0.08,0.19-0.12,0.33-0.12h5.61c0.14,0,0.25,0.04,0.33,0.12c0.08,0.08,0.12,0.19,0.12,0.32v5.4c0,1.19-0.28,2.24-0.83,3.15
		c-0.55,0.91-1.32,1.61-2.31,2.1C92.68,20.76,91.54,21,90.24,21C88.26,21,86.67,20.46,85.47,19.37z"/>
</g>
</svg>
