<svg version="1.1" id="Layer_1" xmlns="http://www.w3.org/2000/svg" xmlns:xlink="http://www.w3.org/1999/xlink" x="0px" y="0px"
	 viewBox="0 0 107.73 21" width="100%" height="100%" preserveAspectRatio="none">
<g>
	<path d="M4.08,20.61L0,0.48V0.36C0,0.12,0.14,0,0.42,0h4.89c0.3,0,0.46,0.14,0.48,0.42l1.02,9.15c0,0.04,0.03,0.07,0.09,0.08
		c0.06,0.01,0.09-0.02,0.09-0.08L8.1,0.42C8.12,0.14,8.28,0,8.58,0h3.66c0.3,0,0.46,0.14,0.48,0.42l1.26,9.18
		c0,0.04,0.03,0.06,0.1,0.07c0.07,0.01,0.1-0.01,0.1-0.07l0.87-9.18C15.08,0.14,15.23,0,15.51,0h4.77c0.34,0,0.48,0.16,0.42,0.48
		l-3.84,20.13C16.8,20.87,16.63,21,16.35,21h-4.14c-0.3,0-0.46-0.14-0.48-0.42l-1.26-9.63c0-0.06-0.04-0.09-0.1-0.09
		c-0.07,0-0.1,0.03-0.1,0.09l-1.02,9.63C9.22,20.86,9.06,21,8.76,21H4.59C4.31,21,4.14,20.87,4.08,20.61z"/>
	<path d="M22.9,19.3c-1.21-1.13-1.81-2.66-1.81-4.58V6.28c0-1.92,0.6-3.44,1.81-4.58C24.11,0.57,25.73,0,27.75,0s3.63,0.57,4.85,1.7
		c1.21,1.13,1.81,2.66,1.81,4.58v8.45c0,1.92-0.6,3.44-1.81,4.58c-1.21,1.13-2.83,1.7-4.85,1.7S24.11,20.43,22.9,19.3z M28.5,15.93
		c0.18-0.23,0.27-0.56,0.27-0.97V6.04c0-0.41-0.09-0.73-0.27-0.97c-0.18-0.23-0.43-0.35-0.75-0.35S27.18,4.84,27,5.07
		c-0.18,0.23-0.27,0.56-0.27,0.97v8.92c0,0.41,0.09,0.73,0.27,0.97c0.18,0.23,0.43,0.35,0.75,0.35S28.32,16.16,28.5,15.93z"/>
	<path d="M43.5,20.61l-1.83-7.53c-0.04-0.1-0.08-0.15-0.12-0.15c-0.08,0-0.12,0.06-0.12,0.18v7.44c0,0.14-0.04,0.25-0.12,0.33
		C41.23,20.96,41.12,21,40.98,21h-4.74c-0.14,0-0.25-0.04-0.33-0.12c-0.08-0.08-0.12-0.19-0.12-0.33V0.45
		c0-0.14,0.04-0.25,0.12-0.33C35.99,0.04,36.1,0,36.24,0h6.75c1.2,0,2.27,0.29,3.19,0.85c0.93,0.57,1.65,1.36,2.18,2.37
		c0.52,1.01,0.78,2.17,0.78,3.46c0,1.1-0.19,2.08-0.57,2.96c-0.38,0.87-0.93,1.58-1.65,2.11c-0.08,0.06-0.11,0.14-0.09,0.24
		l2.43,8.49c0.02,0.04,0.03,0.09,0.03,0.15c0,0.24-0.14,0.36-0.42,0.36h-4.89C43.72,21,43.56,20.87,43.5,20.61z M41.61,4.83
		c-0.12,0-0.18,0.06-0.18,0.18v3.45c0,0.12,0.06,0.18,0.18,0.18H42c0.44,0,0.8-0.17,1.08-0.5c0.28-0.33,0.42-0.79,0.42-1.4
		c0-0.62-0.14-1.1-0.41-1.42C42.82,5,42.46,4.83,42,4.83H41.61z"/>
	<path d="M50.61,20.88c-0.08-0.08-0.12-0.19-0.12-0.33V0.45c0-0.14,0.04-0.25,0.12-0.33C50.69,0.04,50.8,0,50.94,0h4.74
		c0.14,0,0.25,0.04,0.33,0.12c0.08,0.08,0.12,0.19,0.12,0.33v5.94c0,0.08,0.02,0.12,0.08,0.13c0.05,0.01,0.09-0.02,0.13-0.1
		l2.52-6.06C58.96,0.12,59.14,0,59.4,0h4.95c0.16,0,0.28,0.05,0.36,0.15c0.08,0.1,0.08,0.23,0,0.39l-4.23,8.85
		c-0.02,0.08-0.02,0.16,0,0.24l4.35,10.86c0.02,0.06,0.03,0.13,0.03,0.21c0,0.2-0.13,0.3-0.39,0.3h-4.98
		c-0.26,0-0.44-0.12-0.54-0.36l-2.31-6.15c-0.02-0.1-0.06-0.15-0.1-0.15c-0.05,0-0.1,0.05-0.14,0.15l-0.24,0.6
		c-0.02,0.04-0.03,0.12-0.03,0.24v5.22c0,0.14-0.04,0.25-0.12,0.33C55.93,20.96,55.82,21,55.68,21h-4.74
		C50.8,21,50.69,20.96,50.61,20.88z"/>
	<path d="M66.76,19.3c-1.21-1.13-1.81-2.66-1.81-4.58V6.28c0-1.92,0.6-3.44,1.81-4.58C67.97,0.57,69.59,0,71.61,0
		s3.63,0.57,4.85,1.7c1.21,1.13,1.81,2.66,1.81,4.58v8.45c0,1.92-0.6,3.44-1.81,4.58c-1.21,1.13-2.83,1.7-4.85,1.7
		S67.97,20.43,66.76,19.3z M72.36,15.93c0.18-0.23,0.27-0.56,0.27-0.97V6.04c0-0.41-0.09-0.73-0.27-0.97
		c-0.18-0.23-0.43-0.35-0.75-0.35s-0.57,0.12-0.75,0.35c-0.18,0.23-0.27,0.56-0.27,0.97v8.92c0,0.41,0.09,0.73,0.27,0.97
		c0.18,0.23,0.43,0.35,0.75,0.35S72.18,16.16,72.36,15.93z"/>
	<path d="M82.68,20.2c-0.98-0.53-1.74-1.29-2.28-2.25c-0.54-0.97-0.81-2.09-0.81-3.35V0.45c0-0.14,0.04-0.25,0.12-0.33
		C79.79,0.04,79.9,0,80.04,0h4.74c0.14,0,0.25,0.04,0.33,0.12c0.08,0.08,0.12,0.19,0.12,0.33v14.68c0,0.34,0.08,0.6,0.24,0.8
		c0.16,0.2,0.37,0.3,0.63,0.3c0.26,0,0.46-0.1,0.62-0.3c0.15-0.2,0.22-0.46,0.22-0.8V0.45c0-0.14,0.04-0.25,0.12-0.33
		C87.14,0.04,87.25,0,87.39,0h4.74c0.14,0,0.25,0.04,0.33,0.12c0.08,0.08,0.12,0.19,0.12,0.33v14.15c0,1.27-0.27,2.38-0.81,3.35
		c-0.54,0.97-1.3,1.72-2.28,2.25c-0.98,0.53-2.11,0.8-3.39,0.8C84.8,21,83.66,20.73,82.68,20.2z"/>
	<path d="M107.61,0.12c0.08,0.08,0.12,0.19,0.12,0.33v3.93c0,0.14-0.04,0.25-0.12,0.33c-0.08,0.08-0.19,0.12-0.33,0.12h-3.54
		c-0.12,0-0.18,0.06-0.18,0.18v15.54c0,0.14-0.04,0.25-0.12,0.33c-0.08,0.08-0.19,0.12-0.33,0.12h-4.74c-0.14,0-0.25-0.04-0.33-0.12
		c-0.08-0.08-0.12-0.19-0.12-0.33V5.01c0-0.12-0.06-0.18-0.18-0.18h-3.45c-0.14,0-0.25-0.04-0.33-0.12
		c-0.08-0.08-0.12-0.19-0.12-0.33V0.45c0-0.14,0.04-0.25,0.12-0.33C94.04,0.04,94.15,0,94.29,0h12.99
		C107.42,0,107.53,0.04,107.61,0.12z"/>
</g>
</svg>
