<?xml version="1.0" encoding="utf-8"?>
<!-- Generator: Adobe Illustrator 25.0.0, SVG Export Plug-In . SVG Version: 6.00 Build 0)  -->
<svg version="1.1" id="Layer_1" xmlns="http://www.w3.org/2000/svg" xmlns:xlink="http://www.w3.org/1999/xlink" x="0px" y="0px"
	 viewBox="0 0 44.1 44.1" style="enable-background:new 0 0 44.1 44.1;" xml:space="preserve">
<style type="text/css">
	.st0{fill:#F05133;}
</style>
<g id="Logo_artwork">
</g>
<g id="git">
	<path class="st0" d="M43.2,20.1L24,0.8c-1.1-1.1-2.9-1.1-4,0l-4,4l5.1,5.1c1.2-0.4,2.5-0.1,3.5,0.8c0.9,0.9,1.2,2.3,0.8,3.5
		l4.9,4.9c1.2-0.4,2.5-0.1,3.5,0.8c1.3,1.3,1.3,3.5,0,4.8c-1.3,1.3-3.5,1.3-4.8,0c-1-1-1.2-2.5-0.7-3.7l-4.6-4.6v12
		c0.3,0.2,0.6,0.4,0.9,0.6c1.3,1.3,1.3,3.5,0,4.8c-1.3,1.3-3.5,1.3-4.8,0c-1.3-1.3-1.3-3.5,0-4.8c0.3-0.3,0.7-0.6,1.1-0.7V16.2
		c-0.4-0.2-0.8-0.4-1.1-0.7c-1-1-1.2-2.5-0.7-3.7l-5-5L0.8,20c-1.1,1.1-1.1,2.9,0,4l19.2,19.2c1.1,1.1,2.9,1.1,4,0l19.1-19.1
		C44.3,23,44.3,21.2,43.2,20.1z"/>
</g>
</svg>
