<?xml version="1.0" encoding="utf-8"?>
<!-- Generator: Adobe Illustrator 25.0.0, SVG Export Plug-In . SVG Version: 6.00 Build 0)  -->
<svg version="1.1" id="Layer_1" xmlns="http://www.w3.org/2000/svg" xmlns:xlink="http://www.w3.org/1999/xlink" x="0px" y="0px"
	 viewBox="0 0 44.06 50" style="enable-background:new 0 0 44.06 50;" xml:space="preserve">
<style type="text/css">
	.st0{fill:#E34E26;}
	.st1{fill:#EF662A;}
	.st2{fill:#FFFFFF;}
	.st3{fill:#EBEBEB;}
</style>
<g id="Logo_artwork">
</g>
<g id="Guides_to_delete">
	<g>
		<polygon class="st0" points="4.01,45 0,0 44.06,0 40.05,45 22.02,50 		"/>
		<polygon class="st1" points="22.03,3.68 22.03,46.18 36.61,42.14 40.04,3.68 		"/>
		<polygon class="st2" points="8.21,9.2 9.7,25.89 28.83,25.89 28.18,33.05 22.02,34.71 15.88,33.05 15.47,28.45 9.93,28.45 
			10.72,37.31 22.02,40.45 33.34,37.31 34.86,20.37 14.74,20.37 14.24,14.72 35.34,14.72 35.36,14.72 35.85,9.2 		"/>
		<g>
			<polygon class="st3" points="22.03,9.2 8.21,9.2 9.7,25.89 22.03,25.89 22.03,20.37 14.74,20.37 14.24,14.72 22.03,14.72 			"/>
			<polygon class="st3" points="22.03,34.71 22.02,34.71 15.88,33.05 15.47,28.45 9.93,28.45 10.72,37.31 22.02,40.45 22.03,40.45 
							"/>
		</g>
	</g>
</g>
</svg>
