<?xml version="1.0" encoding="utf-8"?>
<!-- Generator: Adobe Illustrator 25.0.0, SVG Export Plug-In . SVG Version: 6.00 Build 0)  -->
<svg version="1.1" id="Layer_1" xmlns="http://www.w3.org/2000/svg" xmlns:xlink="http://www.w3.org/1999/xlink" x="0px" y="0px"
	 viewBox="0 0 44.4 43.3" style="enable-background:new 0 0 44.4 43.3;" xml:space="preserve">
<style type="text/css">
	.st0{fill:#330000;}
	.st1{fill:#340100;}
	.st2{fill:#FE9A00;}
	.st3{fill:#FE9900;}
</style>
<g id="Logo_artwork">
</g>
<g id="ai">
	<path class="st0" d="M37.2,43.3c-10,0-20,0-30,0c0-0.1-0.1-0.1-0.2-0.1c-0.3-0.1-0.7-0.1-1-0.2c-2.8-0.7-5.1-3-5.7-5.9
		c-0.1-0.4-0.1-0.9-0.2-1.4c0-0.2,0-0.4,0-0.6c0-9,0-18.1,0-27.1c0-0.2,0-0.3,0-0.5V7.4c0-0.1,0-0.1,0-0.2c0-0.5,0.1-1.1,0.3-1.6
		C1.3,2.5,4.2,0.2,7.6,0h0.1C17.3,0,27,0,36.6,0c0.1,0,0.2,0,0.3,0c0.3,0,0.7,0,1,0.1c2,0.4,3.6,1.3,4.8,2.9c0.9,1.2,1.5,2.5,1.6,4
		c0,0,0,0,0,0.1c0,9.8,0,19.5,0,29.3c0,0,0,0,0,0.1c-0.1,0.4-0.1,0.7-0.2,1.1c-0.8,3.2-3.5,5.4-6.7,5.8
		C37.4,43.2,37.3,43.3,37.2,43.3z"/>
	<path class="st1" d="M18,14.5c0.7,2.6,1.6,5.1,2.4,7.7c-1.6,0-3.1,0-4.7,0C16.5,19.6,17.4,17.1,18,14.5z"/>
</g>
<path class="st2" d="M21.5,25.9c-2.3,0-4.6,0-6.9,0c0,0.1,0,0.1-0.1,0.2c-0.4,1.3-0.9,2.7-1.3,4c0,0.1,0,0.1-0.1,0.2
	s-0.1,0.2-0.3,0.2h-0.1c-1.1,0-2.1,0-3.2,0c-0.4,0-0.5-0.1-0.3-0.5c0.7-1.9,1.3-3.8,2-5.7c1.3-3.7,2.6-7.5,3.9-11.2
	c0.2-0.6,0.3-1.2,0.3-1.8c0-0.3,0-0.3,0.3-0.3c1.5,0,3,0,4.6,0c0.3,0,0.3,0,0.4,0.3c2.2,6.3,4.4,12.5,6.7,18.8
	c0,0.1,0.1,0.2,0.1,0.3c0,0.1,0,0.2-0.2,0.2c-0.1,0-0.1,0-0.2,0c-1.2,0-2.4,0-3.6,0c-0.3,0-0.3,0-0.4-0.3c-0.5-1.3-0.9-2.7-1.4-4
	C21.6,26.1,21.5,26,21.5,25.9z M18,14.5c-0.7,2.6-1.5,5.1-2.3,7.7c1.5,0,3.1,0,4.7,0C19.6,19.6,18.7,17,18,14.5z"/>
<path class="st3" d="M33.6,23.2c0,2.3,0,4.6,0,6.9c0,0.1,0,0.2,0,0.2c0,0.2-0.1,0.2-0.3,0.3c-0.1,0-0.1,0-0.2,0c-1.1,0-2.1,0-3.2,0
	c-0.1,0-0.1,0-0.2,0c-0.2,0-0.3-0.1-0.3-0.3c0-0.1,0-0.1,0-0.2c0-4.6,0-9.2,0-13.9c0-0.1,0-0.2,0-0.3c0-0.1,0.1-0.2,0.2-0.2
	s0.1,0,0.2,0c1.1,0,2.2,0,3.4,0c0.4,0,0.4,0,0.4,0.4C33.6,18.5,33.6,20.9,33.6,23.2z"/>
<path class="st3" d="M29.2,11.9c0-1.5,1.2-2.3,2.3-2.3c0.2,0,0.5,0,0.7,0.1c1.1,0.2,1.5,1.1,1.6,1.8c0.1,0.5,0,1-0.2,1.4
	c-0.4,0.8-1,1.3-1.9,1.3c-0.4,0-0.9,0-1.3-0.2c-0.7-0.4-1.1-1-1.2-1.7C29.2,12.2,29.2,12.1,29.2,11.9z"/>
</svg>
