<?xml version="1.0" encoding="utf-8"?>
<!-- Generator: Adobe Illustrator 25.0.0, SVG Export Plug-In . SVG Version: 6.00 Build 0)  -->
<svg version="1.1" id="svg4525" xmlns="http://www.w3.org/2000/svg" xmlns:xlink="http://www.w3.org/1999/xlink" x="0px" y="0px"
	 viewBox="0 0 44 50" style="enable-background:new 0 0 44 50;" xml:space="preserve">
<style type="text/css">
	.st0{fill:#D4B830;}
	.st1{fill:#FDD83C;}
	.st2{fill:#FFFFFF;}
	.st3{opacity:0.986;fill:#EBEBEB;fill-opacity:0.9216;enable-background:new    ;}
</style>
<g id="g5193" transform="translate(4.988 -113.385)">
	<path id="path5113" class="st0" d="M-0.9,158.3l-4.1-45l44,0l-4,44.9l-18,5.1L-0.9,158.3z M31.6,155.9l3.4-38.5H17l0.1,42.5
		L31.6,155.9z"/>
	<path id="path5117" class="st1" d="M17,117.4h18l-3.4,38.5l-14.6,4L17,117.4L17,117.4z"/>
	<polygon class="st2" points="30.7,149.4 31.9,135 23.1,136 23.1,128.3 32.5,128.3 32.9,123 18.8,123.1 19,142.2 27.5,140.7 
		27.4,145 18.8,147.3 18.9,152.5 30.7,149.4 	"/>
	<path id="path5157" class="st3" d="M2.5,149l0-5.3c0,0,5.4,1.5,8.5,2.3l0.1-23h4.4v29.5L2.5,149L2.5,149z"/>
</g>
</svg>
