<?xml version="1.0" encoding="utf-8"?>
<!-- Generator: Adobe Illustrator 25.0.0, SVG Export Plug-In . SVG Version: 6.00 Build 0)  -->
<svg version="1.1" id="Layer_1" xmlns="http://www.w3.org/2000/svg" xmlns:xlink="http://www.w3.org/1999/xlink" x="0px" y="0px"
	 viewBox="0 0 38.9 50" style="enable-background:new 0 0 38.9 50;" xml:space="preserve">
<style type="text/css">
	.st0{fill:#427488;}
	.st1{fill:#FFFFFF;}
	.st2{fill:#859EAD;}
</style>
<g id="lumion">
	<rect class="st0" width="38.8" height="41.4"/>
	<path class="st1" d="M12.5,41.5L12.5,41.5L12.5,41.5L12.5,41.5z M35.8,39.3l-0.1-0.2l-0.1-0.2c-0.1-0.1-0.2-0.2-0.3-0.4l-0.1-0.1
		c0.1-1,0.2-1.9,0.3-2.9c0-0.5,0-1,0-1.6c0-0.3,0-0.5,0-0.8c0-0.1,0-0.3,0-0.4v0v0v0v0l0,0l0-0.1c0-0.1,0-0.1,0-0.2
		c-0.1-0.6-0.3-1.1-0.6-1.6l-0.1-0.1c0.2-0.2,0.5-0.4,0.8-0.6c0.2-0.1,0.3-0.2,0.5-0.2c0.2,0,0.4,0,0.6-0.1c-0.2,0-0.4,0-0.6,0
		c-0.2,0-0.4,0-0.6,0.1c-0.3,0.1-0.6,0.3-0.9,0.5c-0.2-0.3-0.5-0.7-0.7-1c-0.3-0.4-0.7-0.8-1.1-1.1l-0.6-0.5l-0.3-0.2l-0.1-0.1l0,0
		l0,0l0,0l0,0l0,0l-0.1-0.1c-0.7-0.7-1.4-1.4-2-2.2c-0.3-0.4-0.6-0.8-0.8-1.2c0.1-0.1,0.2-0.2,0.3-0.3c0.2-0.1,0.4-0.3,0.5-0.5
		c0.3-0.4,0.5-0.8,0.6-1.2l0,0v0c0.1-0.3,0.1-0.6,0.2-0.9l0,0l0,0c0-0.4-0.2-0.8-0.2-1.3c0,0.4,0.1,0.8,0.1,1.3
		c0,0.3-0.1,0.6-0.2,0.9c-0.2,0.4-0.4,0.8-0.7,1.2c-0.1,0.2-0.3,0.3-0.5,0.4c-0.1,0.1-0.2,0.1-0.3,0.2c-0.2-0.4-0.4-0.7-0.6-1.1
		c-0.4-0.9-0.6-1.9-0.7-2.8s0.1-2,0.4-2.9c-0.4,0.9-0.6,1.9-0.7,2.9c0,1,0.1,2,0.5,3c0.3,0.9,0.8,1.8,1.3,2.7l0,0
		c-0.2-0.1-0.3-0.1-0.5-0.2c-0.2,0-0.4,0-0.5,0c-0.3,0.1-0.7,0.2-1,0.1c-0.3,0-0.7-0.1-1-0.3c0.3,0.2,0.6,0.3,1,0.3
		c0.4,0,0.7,0,1.1-0.1c0.2,0,0.3,0,0.5,0c0.2,0,0.3,0.1,0.5,0.2c0.1,0.1,0.3,0.2,0.4,0.3c0.5,0.7,1,1.4,1.6,2.1l0.1,0.1l0,0l0,0l0,0
		l0.1,0.1l0.3,0.3l0.5,0.5c0.3,0.4,0.6,0.7,0.9,1.1c0.3,0.4,0.5,0.8,0.7,1.2c0.2,0.4,0.3,0.8,0.3,1.2l0,0.2l0,0.1v0v0v0v0v0
		c0,0.1,0,0.2,0,0.3c0,0.2,0,0.5,0,0.7c0,0.5-0.1,1-0.1,1.4c-0.1,0.5-0.1,1-0.2,1.4c-0.8-0.7-1.7-1.2-2.5-1.7
		c-0.3-0.1-0.5-0.3-0.8-0.4c0-0.3,0.1-0.6,0.1-0.9c0-0.4,0-0.9,0-1.3c0-0.3-0.1-0.7-0.2-1l0,0c0-0.1,0.1-0.2,0.2-0.2
		c0.1-0.1,0.2-0.1,0.3-0.2c0.2-0.1,0.5-0.2,0.8-0.3c-0.3,0-0.5,0.1-0.8,0.1c-0.1,0-0.3,0.1-0.4,0.1c-0.1,0-0.1,0.1-0.2,0.1l0,0l0,0
		c-0.1-0.4-0.3-0.8-0.5-1.2c0-0.1-0.1-0.2-0.2-0.3c-0.1-0.1-0.1-0.2-0.2-0.3c-0.1-0.2-0.3-0.3-0.4-0.5c-0.3-0.3-0.6-0.6-0.9-0.9
		c-0.3-0.3-0.5-0.6-0.8-1c-0.2-0.3-0.4-0.7-0.4-1.2c0,0.4,0.1,0.8,0.3,1.2c0.2,0.4,0.4,0.7,0.7,1.1c0.3,0.3,0.5,0.7,0.8,1l0,0
		c-0.1,0-0.2,0-0.2,0c-0.1,0-0.2,0.1-0.3,0.2s-0.2,0.1-0.3,0.2s-0.1,0.2,0,0.3c0-0.1,0-0.2,0.1-0.3c0.1-0.1,0.2-0.1,0.3-0.2
		s0.2-0.1,0.3-0.1c0.1,0,0.2,0,0.3,0l0-0.1c0.1,0.1,0.1,0.2,0.2,0.3c0,0.1,0.1,0.2,0.1,0.3c0,0.1,0.1,0.2,0.1,0.3
		c0.2,0.4,0.3,0.8,0.4,1.1c0.1,0.4,0.2,0.8,0.2,1.2c0,0.4,0,0.8-0.1,1.2c0,0.2-0.1,0.4-0.1,0.6l0,0c-0.5-0.3-1-0.5-1.5-0.8
		c-0.9-0.6-1.8-1.2-2.4-2c-0.7-0.8-1.1-1.8-1.5-2.8L24,28.4l0-0.1l0-0.1l-0.1-0.4c-0.1-0.3-0.2-0.5-0.2-0.8
		c-0.1-0.5-0.3-1.1-0.4-1.6c-0.2-1.1-0.3-2.2-0.3-3.3c0-1.1,0.2-2.2,0.4-3.3c0-0.1,0.1-0.3,0.1-0.4l0.1-0.2l0.1-0.2
		c0.1-0.3,0.2-0.5,0.3-0.8c0.1-0.2,0.1-0.4,0.2-0.6c0.1-0.2,0.3-0.4,0.5-0.6c0.2-0.2,0.4-0.4,0.6-0.6c0.1-0.1,0.2-0.2,0.3-0.3
		l0.2-0.1l0,0l0,0l0,0h0l0,0l0.1,0c0.1-0.1,0.3-0.1,0.4-0.1c0.1,0,0.3,0,0.4-0.1c0.1-0.1,0.2-0.2,0.3-0.3l0.1-0.2
		c0-0.1,0.1-0.1,0.1-0.2c0.1-0.3,0.2-0.6,0.2-0.8s0.1-0.6,0.1-0.9c-0.1,0.3-0.1,0.6-0.2,0.9c-0.1,0.3-0.1,0.6-0.2,0.8
		c0,0.1-0.1,0.1-0.1,0.2L27,14.2c-0.1,0.1-0.2,0.2-0.3,0.3c-0.1,0.1-0.3,0.1-0.4,0.1c-0.1,0-0.3,0.1-0.4,0.1l-0.1,0l0,0h0l0,0h0l0,0
		l0,0L25.4,15c-0.1,0.1-0.2,0.2-0.4,0.2c-0.2,0.2-0.5,0.3-0.7,0.5c-0.1,0.1-0.1,0.1-0.2,0.2c0.1-0.2,0.1-0.3,0.2-0.5
		c0.4-1.1,0.8-2.1,1.2-3.2c0.2-0.5,0.3-1.1,0.4-1.7l0-0.1l0.3,0l0,0c0.1,0.2,0.4,0.2,1-0.2c0.6-0.4,0.8-1.2,0.8-1.2s-0.8,0-1.4,0.4
		c-0.5,0.3-0.6,0.6-0.6,0.8l-0.2,0c0.1-0.5,0.1-1,0-1.5c-0.1-0.6-0.2-1.1-0.3-1.7c-0.1-0.5-0.3-1.1-0.4-1.7c0.1,0.6,0.2,1.1,0.4,1.7
		c0.1,0.6,0.2,1.1,0.3,1.7c0,0.6,0,1.1-0.1,1.7c-0.1,0.5-0.2,0.9-0.4,1.3L25,11.7c0.1-0.2,0-0.5-0.4-0.9c-0.5-0.6-1.2-0.8-1.2-0.8
		s0.1,0.8,0.5,1.3c0.5,0.6,0.8,0.6,0.9,0.5l0,0l0.4,0.1l-0.1,0.2c-0.5,1.4-1.1,2.7-1.7,4.1c0-0.1-0.1-0.1-0.1-0.2
		c-0.2-0.3-0.5-0.5-0.7-0.8c-0.3-0.2-0.6-0.4-0.8-0.7c-0.1-0.1-0.2-0.3-0.2-0.4c0-0.2,0-0.3,0.1-0.5c-0.1,0.1-0.1,0.3-0.1,0.5
		c0,0.2,0.1,0.3,0.2,0.5c0.2,0.3,0.5,0.5,0.8,0.7c0.3,0.2,0.5,0.5,0.7,0.8c0.1,0.1,0.1,0.3,0.2,0.4c-0.3,0.7-0.5,1.3-0.7,2
		c-0.1,0.2-0.1,0.4-0.2,0.6l0-0.1c-0.3,0-0.6,0-1-0.1c-0.3-0.1-0.6-0.2-0.9-0.4c-0.6-0.4-1-0.9-1.4-1.4c-0.4-0.6-0.6-1.2-0.8-1.9
		c-0.1-0.7-0.1-1.4,0.1-2c0.1-0.3,0.3-0.6,0.6-0.8c0.2-0.2,0.5-0.4,0.8-0.5c0.3-0.2,0.6-0.3,0.9-0.5c0.1-0.1,0.3-0.2,0.4-0.3
		c0.1-0.1,0.2-0.2,0.4-0.4c0.2-0.3,0.4-0.6,0.5-0.9c0.1-0.3,0.2-0.7,0.2-1c0-0.7-0.1-1.4-0.2-2c0.1,0.7,0.2,1.4,0.2,2
		c0,0.3-0.1,0.7-0.2,1c-0.1,0.3-0.3,0.6-0.5,0.9c-0.1,0.1-0.2,0.2-0.4,0.4c-0.1,0.1-0.3,0.2-0.4,0.3c-0.3,0.2-0.6,0.3-0.9,0.5
		c-0.3,0.2-0.6,0.3-0.9,0.5c-0.1,0.1-0.3,0.2-0.4,0.4c-0.1,0.1-0.2,0.3-0.3,0.5c-0.1,0.3-0.2,0.7-0.2,1c0,0.3,0,0.7,0.1,1
		c0.1,0.7,0.4,1.3,0.8,1.9c0.4,0.6,0.8,1.1,1.4,1.5c0.3,0.2,0.6,0.4,0.9,0.5c0.3,0.1,0.7,0.1,1,0.1c-0.2,0.9-0.4,1.8-0.4,2.7
		c0,0.4,0,0.7,0,1.1c-0.4-0.2-0.9-0.4-1.3-0.6c-0.6-0.3-1.1-0.7-1.6-1.1c-1-0.9-1.8-1.9-2.5-3c-0.7-1.1-1.3-2.3-1.9-3.5
		c-0.1-0.2-0.3-0.5-0.4-0.7c0.1-0.1,0.3-0.3,0.4-0.4c0.1-0.2,0.2-0.3,0.3-0.5c0.1-0.4,0.2-0.8,0.2-1.1c0-0.4,0.1-0.8,0.2-1.1
		c0.1-0.2,0.1-0.3,0.2-0.5c0.1-0.1,0.2-0.3,0.4-0.4c-0.2,0.1-0.3,0.2-0.4,0.4s-0.2,0.3-0.3,0.5c-0.1,0.4-0.2,0.7-0.3,1.1
		C15,12.3,15,12.7,14.8,13c-0.1,0.3-0.3,0.6-0.6,0.8c-0.4-0.9-0.9-1.7-1.4-2.5c1.2,2.2,2.1,4.5,3.3,6.7c-0.2,0.2-0.5,0.4-0.8,0.5
		c-0.3,0.1-0.7,0.2-1.1,0.2c-0.4,0-0.8,0-1.1-0.1c-0.2,0-0.4-0.1-0.5-0.2c-0.2-0.1-0.3-0.2-0.5-0.3c-0.2-0.1-0.3-0.2-0.5-0.3
		c-0.1,0-0.2-0.1-0.3-0.1L11,17.6c-0.4-0.1-0.7-0.2-1.1-0.3c-0.7-0.2-1.5-0.4-2.2-0.8c0.7,0.3,1.4,0.6,2.2,0.8
		c0.4,0.1,0.7,0.2,1.1,0.4l0.3,0.1c0.1,0,0.2,0.1,0.3,0.1c0.2,0.1,0.3,0.2,0.5,0.3c0.1,0.1,0.3,0.2,0.5,0.3c0.2,0.1,0.4,0.2,0.5,0.2
		c0.4,0.1,0.8,0.1,1.2,0.1c0.4,0,0.8-0.1,1.2-0.2c0.3-0.1,0.6-0.3,0.9-0.5c0,0.1,0.1,0.1,0.1,0.2c0.7,1.2,1.4,2.3,2.4,3.3
		c0.5,0.5,1,0.9,1.6,1.3c0.5,0.3,1.1,0.6,1.7,0.9c0,0.5,0.1,1.1,0.2,1.6c0,0.1,0,0.2,0.1,0.4c-0.5-0.1-1.1-0.2-1.6-0.5
		c-0.6-0.2-1.3-0.6-1.9-0.9c-0.6-0.3-1.3-0.6-2-0.8c-0.7-0.2-1.4-0.3-2.1-0.3c-0.1,0-0.2,0-0.3,0c-0.1,0-0.2,0-0.2,0
		c-0.2,0-0.3,0-0.5,0c-0.3,0-0.7-0.1-1-0.2c-0.7-0.2-1.3-0.4-1.9-0.8c-0.6-0.3-1.2-0.8-1.6-1.3C8.6,20.6,8.2,20,8,19.3
		c0.2,0.7,0.5,1.3,1,1.8s1,1,1.6,1.4s1.3,0.7,1.9,0.9c0.3,0.1,0.7,0.2,1,0.2c0.2,0,0.4,0,0.5,0c0.1,0,0.2,0,0.3,0c0.1,0,0.2,0,0.3,0
		c0.7,0,1.3,0.2,2,0.4s1.3,0.5,1.9,0.9s1.2,0.7,1.9,1c0.6,0.3,1.3,0.5,2,0.6c0,0.2,0.1,0.4,0.1,0.5c0.1,0.3,0.1,0.6,0.2,0.8l0.1,0.4
		l0,0.1l0,0.1l0.1,0.2c0.2,0.6,0.4,1.1,0.6,1.7c0.2,0.5,0.6,1.1,0.9,1.6c0.1,0.2,0.3,0.4,0.5,0.6l-0.2,0c-0.5,0.1-1,0.2-1.5,0.4
		c-0.6,0.2-1.1,0.3-1.7,0.5c-0.7-0.5-1.5-0.9-2.2-1.3c-0.8-0.4-1.5-0.9-2.1-1.5l-1-0.9c-0.3-0.3-0.7-0.6-1-0.9
		c-0.4-0.3-0.8-0.5-1.2-0.6c-0.4-0.2-0.9-0.2-1.3-0.3c-0.1,0-0.2,0-0.3,0c-0.1,0-0.2,0-0.3,0c-0.2,0-0.3,0-0.5,0l0-0.3l0,0
		c0.2-0.1,0.3-0.4-0.1-1.1c-0.4-0.6-1.1-1-1.1-1s-0.1,0.8,0.3,1.4c0.3,0.5,0.5,0.7,0.7,0.7l0,0.3h-0.1c-0.4,0-0.9,0-1.3,0
		c-0.4,0-0.9-0.1-1.2-0.3c-0.1,0-0.2-0.1-0.3-0.1l-0.1-0.1l-0.1-0.1c-0.2-0.1-0.4-0.2-0.5-0.4c-0.7-0.5-1.4-1.1-2-1.7
		c-0.6-0.6-1.2-1.3-1.6-2.1c0.4,0.8,1,1.5,1.6,2.1s1.2,1.3,1.9,1.8c0.2,0.1,0.4,0.3,0.5,0.4l0.1,0.1l0.1,0.1
		c0.1,0.1,0.2,0.1,0.3,0.2c0.4,0.2,0.9,0.3,1.3,0.4c0.4,0,0.9,0,1.3,0c0.2,0,0.4,0,0.7,0c0.1,0,0.2,0,0.3,0c0.1,0,0.2,0,0.3,0
		c0.2,0,0.4,0,0.5,0.1l-0.1,0.2c-0.2-0.1-0.5-0.1-1,0.3c-0.6,0.4-0.8,1.2-0.8,1.2s0.8,0,1.3-0.5c0.6-0.4,0.6-0.7,0.5-0.9l0.1-0.3
		c0.2,0,0.4,0.1,0.6,0.2c0.4,0.2,0.8,0.4,1.1,0.6c0.3,0.3,0.7,0.6,1,0.9l0.9,0.9c0.6,0.6,1.4,1.2,2.2,1.6c0.5,0.3,1.1,0.6,1.6,1
		c-0.1,0-0.2,0-0.3,0.1c-0.9,0.3-1.9,0.5-2.9,0.7c-0.5,0.1-1,0.1-1.5,0.1c-0.2,0-0.5,0-0.7,0l-0.2,0l-0.2,0c-0.1,0-0.2,0-0.4-0.1
		c-0.5-0.1-0.9-0.2-1.4-0.3c-0.1-0.1-0.3-0.1-0.4-0.2c-0.5-0.2-0.9-0.5-1.3-0.8c-0.8-0.6-1.7-1.2-2.6-1.8c-0.9-0.5-1.8-1-2.7-1.6
		c-0.9-0.5-1.8-1.1-2.6-1.7c0.8,0.7,1.7,1.2,2.5,1.8c0.9,0.5,1.8,1.1,2.7,1.6c0.9,0.5,1.7,1.2,2.5,1.8c0.3,0.2,0.7,0.5,1,0.7
		c-0.3,0-0.5-0.1-0.8-0.1c-0.5,0-1.1,0-1.6,0.2c-0.2,0.1-0.5,0.2-0.7,0.3c-0.1,0-0.2,0.1-0.3,0.2c-0.1,0-0.2,0.1-0.3,0.2
		c-0.9,0.4-1.9,0.6-2.9,0.8c-1,0.2-2,0.3-3,0.6c1-0.2,2-0.3,3-0.5c1-0.1,2-0.3,3-0.7c0.1,0,0.2-0.1,0.4-0.1c0.1,0,0.2-0.1,0.3-0.1
		c0.2-0.1,0.5-0.2,0.7-0.2c0.5-0.1,1-0.1,1.4-0.1c0.5,0,1,0.2,1.4,0.3c0.5,0.1,1,0.3,1.5,0.4c0.1,0,0.2,0,0.4,0.1l0.2,0l0.2,0
		c0.3,0,0.5,0.1,0.8,0.1c0.5,0,1,0,1.6,0c1-0.1,2.1-0.3,3-0.5c1-0.2,2-0.5,2.9-0.7c0.8-0.2,1.7-0.3,2.5-0.4c0.3,0.3,0.7,0.5,1.1,0.8
		c0.5,0.3,1,0.6,1.5,0.9c0.5,0.3,1,0.6,1.4,0.9c0.9,0.6,1.8,1.2,2.6,2c0.2,0.2,0.3,0.3,0.5,0.5c-0.1,0-0.2-0.1-0.3-0.1
		c-0.9-0.4-1.8-0.6-2.7-0.8c-0.9-0.1-1.9-0.2-2.8-0.1c-1.8,0.2-3.6,0.7-5.3,0.8c-0.2,0-0.4,0-0.7,0s-0.4,0-0.7,0
		c-0.4,0-0.9-0.1-1.3-0.2c-0.4-0.1-0.9-0.1-1.4-0.1c-0.2,0-0.4,0-0.7,0.1c-0.2,0.1-0.4,0.2-0.6,0.3c0.2-0.1,0.4-0.2,0.6-0.3
		c0.2,0,0.4-0.1,0.7-0.1c0.4,0,0.9,0.1,1.3,0.1c0.4,0.1,0.9,0.2,1.3,0.3c0.2,0,0.4,0.1,0.7,0.1c0.2,0,0.5,0,0.7,0
		c0.9,0,1.8-0.1,2.7-0.2c0.9-0.1,1.8-0.2,2.7-0.3c0.9-0.1,1.7,0,2.6,0.2c0.1,0,0.3,0.1,0.4,0.1c-0.2,0-0.5,0-0.7,0.1
		c-0.3,0.1-0.6,0.2-0.8,0.4c-0.2,0.2-0.5,0.4-0.6,0.6s-0.3,0.5-0.4,0.8c-0.1,0.2-0.1,0.4-0.1,0.7h0.2c0-0.2,0.1-0.4,0.1-0.6
		c0.1-0.2,0.2-0.5,0.4-0.7c0.2-0.2,0.4-0.4,0.6-0.5c0.2-0.1,0.5-0.2,0.7-0.3s0.5-0.1,0.8,0c0.5,0,1,0.2,1.5,0.5
		c0.5,0.2,1,0.5,1.4,0.8c0.2,0.1,0.5,0.3,0.7,0.4l0.1,0.1c0.1,0.1,0.2,0.2,0.2,0.3h2.2c-0.2-0.5-0.5-1-0.8-1.5
		C36.1,39.8,36,39.5,35.8,39.3 M38.4,12.8c0,0.3,0,0.6,0.1,1c-0.2-0.5-0.5-1-0.7-1.5c-0.3-0.8-0.7-1.6-0.9-2.4
		c-0.2-0.8-0.4-1.6-0.4-2.5c-0.1,0.8,0,1.7,0.3,2.5c0.2,0.8,0.5,1.6,0.8,2.4s0.7,1.6,1,2.3c0.1,0.2,0.2,0.4,0.2,0.6v-0.9
		c0-0.1-0.1-0.3-0.1-0.4c-0.1-0.4-0.1-0.8-0.1-1.2c0-0.4,0-0.8,0.1-1.2c0-0.2,0.1-0.4,0.2-0.5v-0.3c-0.1,0.3-0.2,0.5-0.3,0.8
		C38.5,12,38.4,12.4,38.4,12.8 M37.7,25.4c0,0.1-0.1,0.2-0.1,0.2c-0.5-0.5-0.9-1-1.3-1.5l-0.2-0.2c0-0.1-0.1-0.1-0.2-0.2
		c-0.1-0.1-0.2-0.3-0.3-0.4c-0.2-0.3-0.4-0.6-0.5-0.9c-0.7-1.3-1.1-2.6-1.1-4.1c0-0.3,0-0.7,0-1.1c0-0.2,0-0.3,0.1-0.5l0.1-0.5
		c0.1-0.7,0.3-1.4,0.5-2.2c0.2-0.7,0.4-1.5,0.4-2.3c0-0.4,0-0.8,0-1.2c0-0.4-0.1-0.8-0.2-1.1c0-0.1,0-0.1-0.1-0.2
		c0.1-0.1,0.3-0.3,0.4-0.4c0.1-0.2,0.2-0.4,0.3-0.6c0.2-0.4,0.2-0.9,0.3-1.3c0.1-0.4,0.2-0.9,0.4-1.3c0.1-0.2,0.2-0.4,0.4-0.5
		c0.2-0.2,0.4-0.3,0.6-0.3c-0.2,0-0.4,0.1-0.6,0.3c-0.2,0.1-0.3,0.3-0.4,0.5c-0.2,0.4-0.3,0.9-0.4,1.3c-0.1,0.4-0.2,0.9-0.4,1.3
		C35.2,8.4,35,8.7,34.7,9c-0.1-0.2-0.2-0.4-0.3-0.6c-0.2-0.3-0.3-0.7-0.5-1c-0.4-0.7-0.8-1.3-1.2-1.9c0.4,0.6,0.8,1.3,1.1,2
		c0.2,0.3,0.3,0.7,0.4,1c0.1,0.3,0.3,0.7,0.4,1c0.2,0.7,0.2,1.4,0.1,2.2c0,0.1,0,0.2,0,0.3c-0.1-0.6-0.4-1.3-0.7-1.8
		C33.4,9.3,32.8,8.5,32,8c-0.4-0.3-0.7-0.6-1.1-0.9c-0.3-0.3-0.6-0.7-0.8-1.1c-0.2-0.4-0.3-0.9-0.3-1.4c0-0.5,0-0.9,0.1-1.4
		c-0.1,0.5-0.1,0.9-0.1,1.4s0.1,0.9,0.2,1.4c0.2,0.4,0.5,0.8,0.8,1.2c0.3,0.3,0.7,0.6,1.1,0.9c0.7,0.6,1.3,1.3,1.7,2.1
		c0.4,0.7,0.6,1.5,0.7,2.4c-0.1,0.4-0.2,0.8-0.4,1.2c-0.2,0.6-0.4,1.3-0.6,1.9c-0.1,0-0.1,0-0.2,0.1c-0.2,0.1-0.5,0.1-0.8,0.1
		c-0.5,0-1-0.1-1.5-0.3c-0.5-0.2-0.9-0.5-1.3-0.8c-0.4-0.4-0.7-0.8-0.8-1.4c0.1,0.5,0.3,1,0.7,1.4c0.4,0.4,0.8,0.7,1.3,0.9
		c0.5,0.2,1,0.3,1.6,0.4c0.3,0,0.6,0,0.8-0.1l0.1,0l-0.1,0.5c0,0.2-0.1,0.4-0.1,0.6C33,17.5,33,17.9,33,18.3c0,0.8,0,1.6,0.2,2.4
		c0.1,0.7,0.4,1.4,0.6,2c-0.4,0.2-0.8,0.5-1.2,0.6c-0.2,0.1-0.5,0.2-0.7,0.2c-0.2,0-0.5,0-0.7-0.1c0.1,0.1,0.2,0.1,0.3,0.2
		c0.1,0,0.3,0,0.4,0c0.3,0,0.5-0.1,0.8-0.1c0.4-0.1,0.8-0.3,1.2-0.5c0.2,0.4,0.3,0.7,0.5,1c0.1,0.2,0.2,0.3,0.3,0.5
		c0,0.1,0.1,0.2,0.2,0.2l0,0.1l0,0l0,0v0l0,0l0.1,0.1c0.4,0.7,0.9,1.3,1.4,1.9s1,1.1,1.5,1.7c0.3,0.3,0.6,0.7,0.8,1v-2.6
		c-0.2-0.2-0.4-0.4-0.7-0.6c0.1-0.6,0.3-1.1,0.6-1.7l0,0v-1.4c-0.2,0.4-0.4,0.7-0.6,1.1C38.1,24.6,37.9,25,37.7,25.4 M13.1,41.2
		L13,41.2l-0.1,0l-0.1,0c-0.1,0-0.3-0.1-0.4-0.1c-0.1-0.1-0.3-0.2-0.4-0.4c-0.3-0.2-0.5-0.4-0.8-0.7c-0.1-0.1-0.2-0.2-0.3-0.4
		c-0.1-0.1-0.2-0.3-0.2-0.4c-0.1-0.3-0.1-0.7-0.1-1c0,0.3,0,0.7,0,1c0,0.2,0.1,0.3,0.2,0.5c0.1,0.1,0.2,0.3,0.3,0.4
		c0.2,0.3,0.5,0.5,0.7,0.7l0.1,0.1c-0.4-0.1-0.8-0.2-1.3-0.3c-0.5-0.1-1-0.2-1.5-0.3c-0.5,0-1,0-1.5,0c-0.1,0-0.2,0-0.4,0.1
		c-0.1,0-0.2,0.1-0.4,0.1c-0.2,0.1-0.5,0.2-0.7,0.3c-0.4,0.2-0.7,0.5-1,0.7h0.2c0.3-0.2,0.6-0.4,0.9-0.5c0.2-0.1,0.4-0.2,0.7-0.3
		c0.1,0,0.2-0.1,0.3-0.1c0.1,0,0.2,0,0.3-0.1c0.5-0.1,1,0,1.4,0c0.5,0.1,0.9,0.2,1.4,0.3c0.5,0.1,0.9,0.3,1.4,0.4
		c0.2,0.1,0.3,0.1,0.5,0.2l0,0h0l0,0l0,0h1.5c-0.2-0.1-0.4-0.1-0.6-0.2L13.1,41.2z"/>
	<path class="st0" d="M3,49.8c-0.6,0-1.1,0-1.4-0.2s-0.6-0.3-0.8-0.6c-0.2-0.2-0.4-0.5-0.5-0.8C0.1,48,0,47.6,0,47v-4.1h1.5V47
		c0,0.4,0,0.7,0,0.9c0,0.2,0.1,0.3,0.2,0.4c0.1,0.2,0.3,0.3,0.5,0.3c0.2,0.1,0.5,0.1,0.8,0.1h1.7v1.2H3z M5.4,42.9v4.2
		c0,0.5,0,0.9,0.1,1.2c0.1,0.3,0.2,0.5,0.3,0.7c0.3,0.3,0.6,0.6,1,0.7c0.4,0.1,0.9,0.2,1.6,0.2c0.6,0,1.1-0.1,1.6-0.2
		c0.4-0.1,0.8-0.4,1-0.7c0.1-0.2,0.2-0.4,0.3-0.7c0.1-0.3,0.1-0.7,0.1-1.2v-4.2H10V47c0,0.6-0.1,1.1-0.3,1.4
		c-0.2,0.3-0.6,0.4-1.2,0.4s-1-0.1-1.2-0.4C7,48.1,6.9,47.7,6.9,47v-4.2L5.4,42.9L5.4,42.9z M12.9,49.8h1.5l-0.1-5.5l1.8,5.5h1.5
		l1.8-5.4l-0.1,5.4h1.4v-7h-2.1l-1.8,5.3L15,42.9h-2.1C12.9,42.9,12.9,49.8,12.9,49.8z M23.7,42.9h-1.5v7h1.5V42.9z"/>
	<path class="st2" d="M28.2,48.8c-0.6,0-1.1-0.2-1.4-0.6c-0.3-0.4-0.4-1-0.4-1.9c0-0.8,0.2-1.4,0.5-1.8c0.3-0.4,0.8-0.6,1.4-0.6
		c0.6,0,1.1,0.2,1.4,0.6s0.5,1,0.5,1.8s-0.1,1.4-0.5,1.8C29.3,48.6,28.8,48.8,28.2,48.8 M28.2,42.7c-1.2,0-2,0.3-2.6,0.9
		c-0.6,0.6-0.9,1.5-0.9,2.7c0,1.3,0.3,2.2,0.8,2.8c0.6,0.6,1.4,0.9,2.6,0.9c1.2,0,2-0.3,2.6-0.9c0.6-0.6,0.8-1.5,0.8-2.7
		c0-1.2-0.3-2.1-0.8-2.7C30.2,43,29.4,42.7,28.2,42.7 M38.8,42.9h-1.5l0.1,5l-2.8-5h-1.8v7h1.5l-0.1-5.3l3,5.3h1.7L38.8,42.9
		L38.8,42.9z"/>
</g>
</svg>
