<?xml version="1.0" encoding="utf-8"?>
<!-- Generator: Adobe Illustrator 25.0.0, SVG Export Plug-In . SVG Version: 6.00 Build 0)  -->
<svg version="1.1" id="Layer_1" xmlns="http://www.w3.org/2000/svg" xmlns:xlink="http://www.w3.org/1999/xlink" x="0px" y="0px"
	 viewBox="0 0 44.1 49.6" style="enable-background:new 0 0 44.1 49.6;" xml:space="preserve">
<style type="text/css">
	.st0{fill:#539E43;}
</style>
<g id="Logo_artwork">
</g>
<g>
	<path class="st0" d="M22,49.6c-0.7,0-1.3-0.2-1.9-0.5L14,45.5c-0.9-0.5-0.5-0.7-0.2-0.8c1.2-0.4,1.5-0.5,2.7-1.2
		c0.1-0.1,0.3,0,0.5,0l4.7,2.8c0.2,0.1,0.4,0.1,0.5,0l18.2-10.5c0.2-0.1,0.3-0.3,0.3-0.5v-21c0-0.2-0.1-0.4-0.3-0.5L22.3,3.3
		c-0.2-0.1-0.4-0.1-0.5,0L3.5,13.8c-0.2,0.1-0.3,0.3-0.3,0.5v21c0,0.2,0.1,0.4,0.3,0.5l5,2.9c2.7,1.4,4.4-0.2,4.4-1.8V16.1
		c0-0.3,0.2-0.5,0.5-0.5h2.3c0.3,0,0.5,0.2,0.5,0.5v20.8c0,3.6-2,5.7-5.4,5.7c-1,0-1.9,0-4.2-1.1l-4.8-2.7C0.7,38,0,36.7,0,35.4v-21
		C0,13,0.7,11.7,1.9,11L20.1,0.5c1.1-0.6,2.7-0.6,3.8,0L42.1,11c1.2,0.7,1.9,2,1.9,3.3v21c0,1.4-0.7,2.6-1.9,3.3L23.9,49.2
		C23.4,49.5,22.7,49.6,22,49.6L22,49.6z M27.6,35.2c-8,0-9.6-3.6-9.6-6.8c0-0.3,0.2-0.5,0.5-0.5h2.4c0.3,0,0.5,0.2,0.5,0.5
		c0.4,2.4,1.4,3.6,6.2,3.6c3.8,0,5.5-0.9,5.5-2.9c0-1.2-0.5-2.1-6.4-2.6c-5-0.5-8.1-1.6-8.1-5.6c0-3.7,3.1-5.9,8.3-5.9
		c5.8,0,8.7,2,9.1,6.4c0,0.1,0,0.3-0.1,0.4c-0.1,0.1-0.2,0.2-0.4,0.2h-2.4c-0.2,0-0.5-0.2-0.5-0.4c-0.5-2.5-2-3.3-5.7-3.3
		c-4.2,0-4.7,1.5-4.7,2.6c0,1.3,0.6,1.7,6.2,2.5c5.6,0.7,8.3,1.8,8.3,5.7C36.7,32.9,33.4,35.2,27.6,35.2L27.6,35.2z"/>
</g>
</svg>
