<?xml version="1.0" encoding="utf-8"?>
<!-- Generator: Adobe Illustrator 25.0.0, SVG Export Plug-In . SVG Version: 6.00 Build 0)  -->
<svg version="1.1" id="Layer_1" xmlns="http://www.w3.org/2000/svg" xmlns:xlink="http://www.w3.org/1999/xlink" x="0px" y="0px"
	 viewBox="0 0 44.1 44" style="enable-background:new 0 0 44.1 44;" xml:space="preserve">
<style type="text/css">
	.st0{fill:#D46EA3;}
	.st1{fill:#FDFAFC;}
</style>
<g id="sass_1_">
	<g id="Logo_artwork">
	</g>
	<path class="st0" d="M39.6,44H4.5C2,44,0,42,0,39.5v-35C0,2,2,0,4.5,0h35.1c2.5,0,4.5,2,4.5,4.5v35C44.1,42,42.1,44,39.6,44z"/>
	<g id="sass">
		<path class="st1" d="M20.3,24.6c0.2,0,0.3-0.1,0.5-0.1c0.6,0,0.8,0.4,0.7,1c-0.3,1.3-0.6,2.5-0.9,3.7c-0.1,0.3,0,0.6,0,0.9h0.1
			c0.1-0.3,0.3-0.5,0.4-0.8c0.8-1.8,1.6-3.4,2.4-5.2c0.4-0.9,0.7-1.9,1.1-2.8c0-0.1,0.2-0.3,0.3-0.3c0.5-0.1,1.1-0.2,1.6-0.1
			c0.5,0,0.6,0.2,0.4,0.7c-0.4,0.9-0.5,1.8-0.3,2.7c0.1,0.4,0.3,0.8,0.4,1.3H27c0.2-0.4,0.4-0.7,0.6-1.1c0.5-0.9,1-1.7,1.4-2.6
			c0.3-0.5,0.4-1.1,0.6-1.7c0.1-0.2,0.2-0.4,0.4-0.4c0.5-0.1,1-0.1,1.5-0.1c0.4,0,0.5,0.2,0.4,0.7c-0.1,0.3-0.2,0.5-0.2,0.8
			c-0.3,1.1-0.2,2.1,0.3,2.9c0.1,0.3,0.3,0.5,0.4,0.8c0.5-0.2,0.9-0.4,1.4-0.5c1.8-0.5,3.5-0.5,5.1,0.4c1.2,0.6,2,1.6,2.3,2.9
			c0.2,1.2-0.5,2.4-1.6,2.8c-0.1,0-0.2,0.1-0.3,0.1c-0.1,0-0.2-0.1-0.3-0.1c0-0.1,0.1-0.2,0.1-0.2c0.2-0.2,0.4-0.3,0.6-0.5
			c0.6-0.6,0.8-1.4,0.4-2.2c-0.5-1.1-1.3-1.7-2.4-2c-1.6-0.5-3.2-0.5-4.7,0c-0.1,0.1-0.3,0.1-0.2,0.3c0.7,1.8-0.1,2.8-1.6,3.7
			c-0.4,0.3-0.9,0.4-1.4,0.6c-0.9,0.3-1.5-0.3-1.3-1.2c0.1-0.9,0.6-1.6,1.1-2.3c0.3-0.3,0.6-0.6,0.9-1c0.1-0.1,0.1-0.2,0.1-0.3
			c-0.5-0.9-0.8-1.8-1-2.8c-0.2,0.4-0.4,0.8-0.6,1.1c-0.5,0.9-1,1.7-1.6,2.5c-0.1,0.2-0.1,0.3-0.1,0.5c0.2,0.6,0.4,1.2,0.3,1.9
			c-0.1,0.9-0.6,1.6-1.3,2.1c-0.8,0.5-1.7,0.8-2.7,0.9h-0.1c-0.3,0-0.7,0-0.9-0.4c-0.2-0.3,0-0.7,0.2-0.9c0.7-0.8,1.4-1.6,2-2.4
			c0.6-0.7,0.5-0.7,0.2-1.6c-0.3-0.6-0.5-1.3-0.7-2c0-0.1-0.1-0.3-0.1-0.5c0.3,0.3,0.3,0.3,0.3,0.4c-0.9,2.3-2,4.5-3.3,6.6
			c-0.2,0.4-0.6,0.8-1,1.1c-0.5,0.4-1.2,0.2-1.4-0.4c-0.3-0.7-0.2-1.4-0.2-2.3c-0.1,0.2-0.1,0.3-0.2,0.4c0,0.1-0.1,0.2-0.1,0.3
			c-0.3,0.7-0.6,1.3-1,2c-0.2,0.5-0.6,0.8-1.2,0.8c-0.7,0-1.1-0.3-1.4-0.8c-0.7-1.2-0.9-2.4-0.7-3.8c0.1-0.6,0.2-1.2,0.4-1.9
			c-0.7,0.4-1.4,0.8-2.1,1.2c0.4,0.9,0.5,1.8,0.5,2.7c-0.1,2.9-2.4,5.6-5.3,6c-0.7,0.1-1.4,0-2.1-0.1c-0.6-0.1-1-0.7-1.2-1.2
			c-0.5-1.5-0.2-2.7,0.8-3.8c0.9-1.1,2.1-1.9,3.3-2.6c0.6-0.4,1.3-0.7,2-1.1c-0.6-0.5-1.1-0.9-1.7-1.3c-1.5-1-3.1-2.1-4.2-3.4
			C4,22.2,3.6,21.6,3.3,21c-0.6-1.1-0.5-2.3,0-3.3c0.6-1.5,1.6-2.7,2.8-3.8c2.8-2.4,5.9-4.1,9.4-5.3c1.8-0.6,3.7-0.9,5.6-0.8
			c1.5,0.1,2.9,0.4,4.1,1.2c1.4,0.9,2,2.3,1.8,3.8c-0.1,1.7-0.9,3-2,4.3c-1.8,2.1-4,3-6.6,3.5c-1.4,0.2-2.8,0.3-4.1,0
			c-0.8-0.2-1.6-0.6-2.1-1.2c-0.2-0.2-0.3-0.6-0.5-0.9c0-0.1,0.1-0.2,0.1-0.3c0.1,0,0.2,0,0.3,0.1c0.9,1,2.1,1.3,3.4,1.2
			c3.3-0.2,6.1-1.4,8.3-3.9c0.6-0.7,1.1-1.6,1.2-2.5c0.2-1.3-0.3-2.2-1.6-2.6s-2.6-0.5-3.8-0.4c-4.1,0.5-7.6,2.4-10.9,4.8
			c-1.1,0.9-2,1.9-2.5,3.1c-0.7,1.8-0.4,3,0.6,4.3c0.9,1,2,1.8,3,2.5c0.6,0.5,1.3,1.1,1.9,1.6c0.2,0.2,0.3,0.2,0.5,0.1
			c1.1-0.6,2.2-1.2,3.3-1.8c0.3-0.2,0.5-0.5,0.7-0.7c0.6-0.6,1.2-1.2,2-1.5c0.2-0.1,0.5-0.2,0.7-0.2c0.9-0.1,1.5,0.4,1.5,1.3
			C20.3,23.9,20.3,24.2,20.3,24.6z M11.3,28.1c-0.5,0.3-1,0.6-1.5,0.9C9,29.6,8,30.3,7.3,31.2c-0.5,0.7-0.9,1.4-0.8,2.3
			c0,0.5,0.3,0.8,0.8,0.8c0.2,0,0.4,0,0.6,0c1.4-0.3,2.4-1.2,3.1-2.4C11.6,30.6,11.6,29.4,11.3,28.1z M16.2,28.9
			c0,0.3,0,0.6,0.1,0.9c0.1,0.2,0.2,0.5,0.4,0.7c0.2-0.2,0.4-0.3,0.5-0.6c0.3-0.7,0.6-1.3,0.9-2c0.4-1.3,0.8-2.5,1.2-3.7
			c0-0.1,0-0.4-0.1-0.4c-0.1-0.1-0.3-0.1-0.4,0c-0.3,0.2-0.7,0.4-0.9,0.7C16.8,25.8,16.2,27.2,16.2,28.9z M31.5,26.7
			c-0.8,0.5-1.7,2.1-1.4,2.5C31.2,29,31.9,27.7,31.5,26.7z M26.3,28.4c-0.6,0.8-1.3,1.5-1.9,2.2C25.2,30.6,26.4,29.3,26.3,28.4z"/>
	</g>
</g>
</svg>
