<?xml version="1.0" encoding="utf-8"?>
<!-- Generator: Adobe Illustrator 25.0.0, SVG Export Plug-In . SVG Version: 6.00 Build 0)  -->
<svg version="1.1" id="Layer_1" xmlns="http://www.w3.org/2000/svg" xmlns:xlink="http://www.w3.org/1999/xlink" x="0px" y="0px"
	 viewBox="0 0 43.7 49.2" style="enable-background:new 0 0 43.7 49.2;" xml:space="preserve">
<style type="text/css">
	.st0{fill:#0C5E9F;}
	.st1{fill:#065A9C;}
	.st2{fill:#1765A3;}
	.st3{fill:#0D5F9F;}
</style>
<g id="technical">
	<path class="st0" d="M0,24.5c0-7.7,0-15.3,0-23C0,1.2,0,1,0,0.7C0,0.2,0.2,0,0.7,0c2.2,0,4.4,0,6.6,0c0.5,0,0.9,0.5,0.9,0.9
		c0,0.2,0,0.5,0,0.8c0,3.4,0,6.9,0,10.3c0,0.5,0.1,0.9,0.5,1.2c0.2,0.2,0.4,0.4,0.6,0.6c0.4,0.4,0.8,0.7,1.2,1
		c0.4-0.3,0.8-0.6,1.1-1c0.2-0.3,0.5-0.3,0.8-0.2c0.2,0.1,0.5,0.2,0.6,0.4c0.1,0.2,0,0.5-0.1,0.7c-0.3,0.4-0.7,0.8-1.1,1.2
		c-0.1,0.1-0.2,0.2,0,0.4c2.4,2.4,4.9,4.8,7.3,7.3c0.3,0.3,0.5,0,0.5-0.1c0.3-0.6,0.6-1.3,0.8-1.9c0.2-0.6,0.6-1.2,0.7-1.8
		c0.1-0.6,0.6-1,1-1.5c5.6-5.6,11.2-11.2,16.9-16.9C39,1,39.2,0.9,39.3,0.7c0.4-0.3,0.8-0.3,1.2,0c1,1,2,2,2.9,2.9
		c0.3,0.3,0.4,0.5,0.1,0.9c-0.2,0.3-0.4,0.6-0.6,0.9c-5.7,5.7-11.3,11.4-17,17c-0.3,0.3-0.6,0.6-1,0.7c-1.2,0.3-2.2,0.9-3.4,1.3
		c-0.3,0.1-0.5,0.2-0.8,0.2c-0.3,0.1-0.3,0.3-0.1,0.5c0.2,0.3,0.5,0.5,0.7,0.7c5.4,5.4,10.8,10.8,16.2,16.2c0.2,0.2,0.3,0.4,0.5,0.5
		c0.4,0.2,0.3,0.6,0.3,0.9c0,0.1-0.1,0.2-0.2,0.2c-0.5,0-1,0.1-1.3-0.4c-0.4-0.5-0.8-1.1-1.3-1.3c-0.6-0.2-1.3-0.1-2-0.1
		c-8,0-16,0-24,0c-0.3,0-0.6,0-0.9,0c-0.3,0-0.4,0.1-0.4,0.4c0,1.1,0,2.2,0,3.3c0,0.8,0,1.7,0,2.5c0,0.7-0.4,1.1-1.1,1.1
		c-2,0-4.1,0-6.1,0c-0.9,0-1-0.1-1-1c0-4.4,0-8.9,0-13.3C0,31.4,0,28,0,24.5z M7,24.6c0-7.3,0-14.5,0-21.8C7,2.5,7,2.3,7,2
		c0-0.5-0.2-0.8-0.7-0.8c-1.6,0-3.2,0-4.8,0c-0.1,0-0.3,0.1-0.3,0.1c0,0.2,0,0.5,0,0.7c0,0.1,0.3,0.1,0.4,0.1c0.1,0,0.3,0,0.4,0
		c0.5,0.1,0.7,0.3,0.7,0.9c0,0.5-0.4,0.3-0.6,0.3c-0.2,0-0.3,0-0.5,0c-0.3,0-0.4,0-0.4,0.3c0,0.2,0,0.3,0,0.5c0,0.4-0.1,0.9,0.1,1.1
		C1.5,5.6,2,5.5,2.4,5.5c0.3,0,0.4,0.1,0.4,0.4c0,0.7-0.1,0.9-0.8,0.9c-0.1,0-0.2,0-0.3,0C1.3,6.7,1.2,7,1.3,7.3
		c0,0.4-0.1,0.8,0.1,1.1c0.1,0.2,0.6,0.1,0.9,0.1c0.4,0.1,0.6,0.3,0.5,0.7c0,0.3-0.2,0.5-0.5,0.6c-0.2,0-0.4,0-0.6,0
		c-0.3,0-0.4,0.1-0.4,0.3c0,0.4,0,0.8,0,1.1c0,0.1,0.2,0.2,0.3,0.3c0.2,0,0.4,0,0.6,0c0.4,0.1,0.6,0.3,0.6,0.9
		c0,0.5-0.3,0.4-0.6,0.4c-0.9,0-0.9,0-0.9,0.9c0,0.3,0,0.5,0,0.8c0,0.3,0.1,0.4,0.4,0.4c0.2,0,0.4,0,0.6,0c0.2,0,0.6-0.1,0.5,0.3
		c0,0.3,0.3,0.7-0.4,0.8c-0.2,0-0.5,0.2-0.8,0.2c-0.3,0-0.4,0.1-0.4,0.3c0,0.4,0,0.8,0,1.1c0,0.1,0.2,0.3,0.3,0.3c0.2,0,0.5,0,0.7,0
		c0.2,0,0.4-0.1,0.5,0.2c0.1,0.4-0.1,0.9-0.3,1c-0.2,0-0.3,0-0.5,0c-0.7,0-0.7,0-0.7,0.6c0,0.3,0,0.5,0,0.8c0,0.3,0.1,0.4,0.3,0.4
		c0.2,0,0.3,0,0.5,0c0.5,0.1,0.7,0.3,0.7,0.9c0,0.5-0.4,0.3-0.6,0.3c-0.2,0-0.3,0-0.5,0c-0.3,0-0.4,0.1-0.4,0.3c0,0.1,0,0.3,0,0.4
		c0,0.4-0.1,0.9,0.1,1.2c0.1,0.2,0.7,0.1,1.1,0.1c0.3,0,0.6,0.2,0.6,0.5c0,0.3-0.2,0.5-0.6,0.5c-0.1,0-0.2,0-0.3,0
		c-0.9,0-0.9,0-0.9,0.9c0,0.2,0,0.4,0,0.6c-0.1,0.4,0.1,0.5,0.5,0.5c0.1,0,0.3,0,0.4,0c0.6,0,0.8,0.3,0.6,0.8
		c-0.1,0.2-0.3,0.4-0.5,0.4c-0.2,0.1-0.4,0-0.6,0c-0.3,0-0.4,0.1-0.4,0.4c0,0.4,0,0.8,0,1.1c0,0.1,0.2,0.2,0.3,0.3
		c0.2,0,0.4,0,0.6,0c0.4,0.1,0.6,0.3,0.6,0.9c0,0.5-0.4,0.3-0.6,0.4c-0.9,0-0.9,0-0.9,0.9c0,0.1,0,0.2,0,0.3
		c-0.1,0.5,0.1,0.7,0.6,0.6c0.2,0,0.3,0.2,0.5,0.2c0.6,0,0.3,0.5,0.4,0.7c0.1,0.4-0.3,0.3-0.5,0.3c-0.2,0-0.4,0-0.6,0
		c-0.3,0-0.4,0.1-0.4,0.3c0,0.1,0,0.3,0,0.4c0,0.4-0.1,0.9,0.1,1.2c0.1,0.2,0.7,0.1,1.1,0.1c0.3,0,0.3,0.1,0.3,0.4
		c0,0.7-0.1,0.8-0.8,0.9c-0.7,0-0.7,0-0.7,0.7c0,0.3,0,0.5,0,0.8c0,0.3,0.1,0.4,0.4,0.4c0.2,0,0.4,0,0.6,0c0.3,0,0.5,0.2,0.5,0.6
		c0,0.3-0.2,0.6-0.5,0.7c-0.2,0-0.4,0-0.6,0c-0.1,0-0.3,0.1-0.3,0.1c0,0.5-0.1,1,0,1.5c0,0.1,0.5,0.1,0.8,0.1c0.1,0,0.2,0,0.4,0
		c0.2,0.1,0.4,0.6,0.3,1c-0.1,0.3-0.3,0.2-0.5,0.2c-1,0-1,0-1,1c0,0.2,0,0.3,0,0.5c-0.1,0.4,0.1,0.5,0.5,0.5c0.1,0,0.3,0,0.4,0
		c0.6,0,0.8,0.3,0.6,0.8c-0.1,0.2-0.3,0.4-0.5,0.4c-0.2,0.1-0.4,0-0.6,0c-0.4,0-0.4,0.2-0.3,0.5c0,0.2-0.1,0.5,0.3,0.5
		c1.6,0,3.2,0,4.8,0c0.5,0,0.7-0.2,0.7-0.8c0-0.3,0-0.5,0-0.8C7,39.2,7,31.9,7,24.6z M21.2,40.7c4,0,7.9,0,11.9,0c0.3,0,0.7,0,1,0
		c0.1,0,0.1-0.1,0.2-0.1c0-0.1-0.1-0.1-0.1-0.2c-0.8-0.8-1.5-1.5-2.3-2.3c-0.2-0.2-0.4-0.2-0.6,0c-0.5,0.5-0.9,1-1.4,1.4
		c-0.3,0.3-0.6,0.2-0.9,0c-0.3-0.3-0.3-0.6,0-0.9c0.3-0.3,0.5-0.5,0.8-0.8c0.9-0.9,0.9-0.9,0-1.8c-0.4-0.4-0.4-0.4-0.9,0
		c-0.4,0.4-0.8,0.8-1.2,1.2c-0.3,0.3-0.6,0.3-0.9,0c-0.3-0.3,0-0.5,0.2-0.7c0.4-0.4,0.8-0.8,1.2-1.2c0.3-0.3,0.3-0.6,0-0.9
		c-0.1-0.1-0.2-0.2-0.4-0.4c-0.5-0.4-0.6-0.4-1.1,0c-0.4,0.4-0.8,0.8-1.2,1.2c-0.3,0.2-0.7,0.2-0.8-0.2c-0.1-0.3-0.2-0.7,0.2-1
		c0.4-0.3,0.7-0.7,1.1-1.1c0.1-0.1,0.2-0.3,0.2-0.4c0-0.6-0.5-0.8-0.9-1.1c-0.3-0.2-0.5,0.2-0.7,0.4c-0.4,0.4-0.8,0.8-1.2,1.1
		c-0.3,0.3-0.6,0.3-0.9,0c-0.3-0.3-0.3-0.6-0.1-0.9c0.2-0.3,0.5-0.5,0.8-0.8c1.1-1.2,1.1-0.7-0.1-1.9c0,0-0.1-0.1-0.1-0.1
		c-0.2-0.3-0.4-0.2-0.6,0c-0.5,0.5-0.9,1-1.4,1.4c-0.3,0.3-0.6,0.2-0.9,0c-0.2-0.2-0.2-0.4,0-0.6c0.2-0.2,0.3-0.5,0.5-0.7
		c0.2-0.3,0.5-0.5,0.8-0.8c0.4-0.4,0.5-0.5,0-1c-0.1-0.1-0.1-0.1-0.2-0.2c-0.5-0.4-0.7-0.5-1.1,0c-0.3,0.3-0.6,0.7-1,1
		c-0.4,0.3-0.8,0.3-1.2,0c-0.2-0.2-0.3-0.3-0.1-0.5c0.5-0.5,1-0.9,1.4-1.4c0.3-0.3,0.3-0.6,0-0.9c-0.1-0.2-0.3-0.3-0.4-0.4
		c-0.3-0.3-0.6-0.3-0.9,0c-0.5,0.5-1,0.9-1.4,1.4c-0.3,0.3-0.4,0.1-0.6-0.1c-0.2-0.3-0.2-0.6,0.1-0.9c0.5-0.4,0.9-0.9,1.3-1.3
		c0.3-0.3,0.3-0.5,0-0.7c-0.2-0.2-0.4-0.4-0.6-0.6c-0.3-0.3-0.5-0.4-0.8,0c-0.4,0.5-0.9,0.9-1.3,1.3c-0.3,0.3-0.6,0.3-0.9,0
		c-0.3-0.3-0.3-0.6,0-0.9c0.3-0.3,0.6-0.7,1-1c0.9-0.9,0.9-0.6,0-1.5c-0.4-0.4-0.6-0.4-1,0c-0.3,0.3-0.7,0.6-1,1
		c-0.3,0.4-0.7,0.3-1,0.2c-0.3,0-0.4-0.5-0.2-0.8c0.3-0.3,0.6-0.7,1-1c0.9-0.9,0.8-1.1-0.1-1.8c-0.3-0.2-0.6-0.3-0.9,0
		c-0.5,0.5-0.9,1-1.4,1.4c-0.2,0.2-0.6,0.2-0.7-0.1c-0.1-0.3-0.2-0.7,0.1-1c0.4-0.4,0.8-0.8,1.2-1.2c0.3-0.3,0.3-0.6,0-0.9
		c-0.4-0.4-0.9-0.9-1.3-1.3c-0.3-0.3-0.5-0.5-0.8-0.8c-0.1-0.1-0.2-0.1-0.3-0.1c0,0-0.1,0.1-0.1,0.2c0,0.2,0,0.3,0,0.5
		C8,23.5,8,31.8,8,40c0,0.7-0.1,0.7,0.7,0.7C12.9,40.7,17.1,40.7,21.2,40.7z M23.3,19.6c0.6,0.1,0.7-0.3,1-0.5
		c4.5-4.5,9-9,13.5-13.5c0.1-0.1,0.4-0.3,0.4-0.4c0.1-0.3,0.1-0.5-0.2-0.8c-0.3-0.2-0.4-0.1-0.6,0.1c-0.1,0.2-0.3,0.3-0.4,0.4
		c-4.5,4.5-8.9,8.9-13.4,13.4c-0.1,0.1-0.3,0.3-0.4,0.4c-0.1,0.1-0.2,0.3-0.2,0.4C23,19.4,23.2,19.5,23.3,19.6z M25,21.3
		c0.1-0.1,0.2-0.2,0.3-0.4c4.6-4.6,9.2-9.2,13.8-13.8c0.1-0.1,0.3-0.3,0.4-0.5c0.1-0.1,0-0.3,0-0.4c-0.3-0.4-0.4-0.4-0.9,0.1
		c-4.7,4.7-9.4,9.4-14.1,14.1c-0.1,0.1-0.2,0.3-0.2,0.3C24.6,21,24.8,21.2,25,21.3z M41.9,4.2c0-0.2,0-0.3,0-0.4
		C41.3,3.3,40.7,2.6,40,2c0,0-0.2,0-0.2,0c-0.4,0.4-0.8,0.7-1.1,1.2c-0.1,0.1,0,0.5,0.2,0.6c0.3,0.3,0.6,0.6,0.9,0.9
		c1.2,1.1,0.7,1.1,1.9-0.1C41.8,4.5,41.9,4.3,41.9,4.2z M23.9,22c-0.1-0.1-0.2-0.2-0.2-0.2c-0.3-0.3-0.6-0.6-1-1
		c-0.5-0.5-0.5-0.5-0.9,0.2c-0.3,0.6-0.5,1.1-0.7,1.7c-0.1,0.3,0.1,0.5,0.4,0.4c0.7-0.3,1.3-0.7,2-0.8C23.6,22.3,23.8,22.1,23.9,22z
		"/>
	<path class="st1" d="M41.7,46.6c0,0.1-0.1,0.4-0.4,0.5c-0.2,0.1-0.5,0.1-0.8-0.2c-0.5-0.6-1.1-1.1-1.7-1.7
		c-0.3-0.3-0.2-0.6-0.2-0.9c0-0.3,0.7-0.6,0.9-0.4c0.7,0.7,1.4,1.4,2.1,2.1C41.7,46.1,41.7,46.3,41.7,46.6z"/>
	<path class="st1" d="M13.9,13.3c-0.6-0.1-0.9-0.8-0.5-1.2c0.6-0.7,1.3-1.3,1.9-1.9c0.2-0.2,0.5-0.2,0.8,0.1c0.2,0.2,0.3,0.8,0.1,1
		c-0.7,0.7-1.3,1.4-2,2C14.1,13.3,14,13.3,13.9,13.3z"/>
	<path class="st1" d="M17.1,9.8c-0.1,0-0.5-0.1-0.5-0.2c0-0.3-0.1-0.6,0.1-0.8c0.6-0.7,1.3-1.3,1.9-2c0.2-0.2,0.5-0.2,0.8,0.1
		c0.2,0.2,0.3,0.8,0.1,1c-0.6,0.6-1.2,1.2-1.8,1.8C17.6,9.8,17.3,9.8,17.1,9.8z"/>
	<path class="st1" d="M22.8,4c0,0.2,0,0.3,0,0.3c0,0.5-1.7,2.2-2.1,2.2c-0.4,0.1-0.7,0-0.8-0.4c-0.1-0.3-0.1-0.5,0.2-0.8
		c0.6-0.5,1.1-1.1,1.6-1.6c0.1-0.1,0.1-0.2,0.2-0.2c0.3-0.1,0.6-0.2,0.8-0.1C22.8,3.6,22.8,3.9,22.8,4z"/>
	<path class="st2" d="M24.6,2.6c0,0.4-0.2,0.6-0.7,0.7c-0.5,0-0.8-0.2-0.8-0.7c0-0.4,0.3-0.6,0.8-0.6C24.3,2,24.6,2.2,24.6,2.6z"/>
	<path class="st2" d="M42.5,47.4c0.2,0.1,0.7-0.2,0.7,0.4c0,0.6-0.2,0.8-0.6,0.9c-0.4,0-0.7-0.2-0.7-0.8
		C41.9,47.4,41.9,47.4,42.5,47.4z"/>
	<path class="st3" d="M18,36.6c-1.7,0-3.4,0-5.1,0c-0.7,0-0.8-0.2-0.8-0.9c0-3.3,0-6.5,0-9.8c0-0.2,0-0.4,0.1-0.6
		c0.2-0.6,0.6-0.7,1-0.3c0.5,0.4,0.9,0.9,1.3,1.3c2.9,2.9,5.7,5.7,8.6,8.6c0.2,0.2,0.3,0.4,0.5,0.5c0.3,0.3,0.2,0.6,0.2,0.9
		c0,0.1-0.4,0.2-0.6,0.2C21.5,36.7,19.8,36.6,18,36.6z M13.3,31.2c0,1.1,0,2.2,0,3.3c0,1.1,0,1.1,1.1,1.1c2.2,0,4.4,0,6.5,0
		c0.2,0,0.4,0,0.5,0c0.1,0,0.2-0.3,0.2-0.4c0-0.1-0.2-0.2-0.3-0.3c-2.5-2.5-5.1-5.1-7.6-7.6c-0.1-0.1-0.2-0.1-0.3-0.2
		c0,0.1-0.1,0.2-0.1,0.3C13.3,28.7,13.3,30,13.3,31.2z"/>
</g>
</svg>
