<?xml version="1.0" encoding="utf-8"?>
<!-- Generator: Adobe Illustrator 25.0.0, SVG Export Plug-In . SVG Version: 6.00 Build 0)  -->
<svg version="1.1" id="Layer_1" xmlns="http://www.w3.org/2000/svg" xmlns:xlink="http://www.w3.org/1999/xlink" x="0px" y="0px"
	 viewBox="0 0 43 43" style="enable-background:new 0 0 43 43;" xml:space="preserve">
<style type="text/css">
	.st0{fill:#007ACC;}
	.st1{fill:#FFFFFF;}
</style>
<g id="Logo_artwork">
</g>
<g>
	<path class="st0" d="M34.6,43H8.4C3.8,43,0,39.2,0,34.6L0,8.4C0,3.8,3.8,0,8.4,0l26.1,0C39.2,0,43,3.8,43,8.4v26.1
		C43,39.2,39.2,43,34.6,43z"/>
	<path class="st1" d="M9.4,21.6v1.8H15v15.9h4V23.3h5.6v-1.7c0-1,0-1.8,0-1.8c0,0-3.4,0-7.5,0l-7.5,0L9.4,21.6L9.4,21.6L9.4,21.6z
		 M34.6,19.8c1.1,0.3,1.9,0.8,2.7,1.5c0.4,0.4,1,1.2,1,1.4c0,0.1-1.9,1.3-3,2c0,0-0.2-0.2-0.4-0.4c-0.6-0.8-1.1-1.1-2-1.2
		c-1.3-0.1-2.1,0.6-2.1,1.7c0,0.3,0.1,0.5,0.2,0.8c0.3,0.6,0.8,0.9,2.5,1.7c3.1,1.3,4.4,2.2,5.2,3.4c0.9,1.4,1.1,3.6,0.5,5.2
		c-0.7,1.8-2.4,3-4.8,3.4c-0.8,0.1-2.5,0.1-3.3,0c-1.7-0.3-3.4-1.2-4.4-2.3c-0.4-0.4-1.2-1.6-1.1-1.7l0.4-0.3l1.6-0.9l1.2-0.7
		l0.3,0.4c0.4,0.6,1.2,1.3,1.6,1.6c1.4,0.7,3.3,0.6,4.2-0.2c0.4-0.4,0.6-0.8,0.6-1.3c0-0.5-0.1-0.7-0.3-1.1c-0.3-0.5-1-0.9-3-1.7
		c-2.2-0.9-3.2-1.5-4.1-2.5c-0.5-0.6-1-1.4-1.2-2.1c-0.2-0.6-0.2-2.1-0.1-2.8c0.5-2.2,2.1-3.7,4.4-4.1
		C32.1,19.5,33.8,19.6,34.6,19.8L34.6,19.8L34.6,19.8z"/>
</g>
</svg>
