<svg width="60" height="4000" viewBox="0 0 60 4000" fill="none" xmlns="http://www.w3.org/2000/svg">
  <path id="0b172c46" d="M29.9001 4000C29.9001 4000 30.1001 3596 30.1001 3591.1C30.1001 3579.3 11.4001 3581.7 11.4001 3600.1C11.4001 3618.4 29.9001 3618.9 29.9001 3618.9C29.9001 3618.9 48.3001 3618 48.5001 3600.3C48.7001 3583.2 41.4001 3579.1 37.4001 3576.1C33.2001 3572.8 25.2001 3571.6 19.1001 3573.5C16.0001 3574.5 0.900097 3583.4 0.900097 3600.4C0.900097 3607.9 6.4001 3629.3 29.8001 3629.3C44.3001 3629.3 58.7001 3618.9 58.7001 3600.4C58.7001 3573.7 29.8001 3571.5 29.8001 3571.5V3234.9V3200C29.8001 3200 30.0001 2796 30.0001 2791.1C30.0001 2779.3 11.3001 2781.7 11.3001 2800.1C11.3001 2818.4 29.8001 2818.9 29.8001 2818.9C29.8001 2818.9 48.2001 2818 48.4001 2800.3C48.6001 2783.2 41.3001 2779.1 37.3001 2776.1C33.1001 2772.8 25.1001 2771.6 19.0001 2773.5C15.9001 2774.5 0.800098 2783.4 0.800098 2800.4C0.800098 2807.9 6.3001 2829.3 29.7001 2829.3C44.2001 2829.3 58.6001 2818.9 58.6001 2800.4C58.6001 2773.7 29.7001 2771.5 29.7001 2771.5V2400V2369.2C29.7001 2369.2 29.9001 1996 29.9001 1991.1C29.9001 1979.3 11.2001 1981.7 11.2001 2000.1C11.2001 2018.4 29.7001 2018.9 29.7001 2018.9C29.7001 2018.9 48.1001 2018 48.3001 2000.3C48.5001 1983.2 41.2001 1979.1 37.2001 1976.1C33.0001 1972.8 25.0001 1971.6 18.9001 1973.5C15.8001 1974.5 0.700098 1983.4 0.700098 2000.4C0.700098 2007.9 6.2001 2029.3 29.6001 2029.3C44.1001 2029.3 58.5001 2018.9 58.5001 2000.4C58.5001 1973.7 29.6001 1971.5 29.6001 1971.5V1600V1582.2C29.6001 1582.2 29.8001 1196 29.8001 1191.1C29.8001 1179.3 11.1001 1181.7 11.1001 1200.1C11.1001 1218.4 29.6001 1218.9 29.6001 1218.9C29.6001 1218.9 48.0001 1218 48.2001 1200.3C48.4001 1183.2 41.1001 1179.1 37.1001 1176.1C32.9001 1172.8 24.9001 1171.6 18.8001 1173.5C15.7001 1174.5 0.600098 1183.4 0.600098 1200.4C0.600098 1207.9 6.1001 1229.3 29.5001 1229.3C44.0001 1229.3 58.4001 1218.9 58.4001 1200.4C58.4001 1173.7 29.5001 1171.5 29.5001 1171.5V805.5V800.2C29.5001 800.2 29.7001 396.2 29.7001 391.3C29.7001 379.5 11.0001 381.9 11.0001 400.3C11.0001 418.6 29.5001 419.1 29.5001 419.1C29.5001 419.1 47.9001 418.2 48.1001 400.5C48.3001 383.4 41.0001 379.3 37.0001 376.3C32.8001 373 24.8001 371.8 18.7001 373.7C16.0001 374.4 1.0001 383.3 1.0001 400.2C1.0001 407.7 6.5001 429.1 29.9001 429.1C44.4001 429.1 58.8001 418.7 58.8001 400.2C58.8001 373.5 29.9001 371.3 29.9001 371.3V0M29.8001 4000V4005.3V4371.3C29.8001 4371.3 58.7001 4373.5 58.7001 4400.2C58.7001 4418.7 44.3001 4429.1 29.8001 4429.1C6.40011 4429.1 0.900116 4407.7 0.900116 4400.2C0.900116 4383.2 16.0001 4374.3 19.1001 4373.3C25.2001 4371.4 33.2001 4372.6 37.4001 4375.9C41.4001 4378.9 48.7001 4383 48.5001 4400.1C48.3001 4417.8 29.9001 4418.7 29.9001 4418.7C29.9001 4418.7 11.4001 4418.2 11.4001 4399.9C11.4001 4381.5 30.1001 4379.1 30.1001 4390.9C30.1001 4395.8 29.9001 4782 29.9001 4782V4799.8L29.9 5165.8C29.9 5165.8 58.8 5168 58.8 5194.7C58.8 5213.2 44.4 5223.6 29.9 5223.6C6.49999 5223.6 37.4001 5207.5 37.4001 5200C37.4001 5183 16.1 5168.8 19.2 5167.8C25.3 5165.9 33.3 5167.1 37.5 5170.4C41.5 5173.4 48.8 5177.5 48.6 5194.6C48.4 5212.3 30 5213.2 30 5213.2C30 5213.2 11.5 5212.7 11.5 5194.4C11.5 5176 30.2 5173.6 30.2 5185.4C30.2 5190.3 30 5576.5 30 5576.5V5594.3" stroke="#00649B" stroke-width="2"></path>
</svg>