<?xml version="1.0" encoding="utf-8"?>
<!-- Generator: Adobe Illustrator 25.0.0, SVG Export Plug-In . SVG Version: 6.00 Build 0)  -->
<svg version="1.1" id="Layer_1" xmlns="http://www.w3.org/2000/svg" xmlns:xlink="http://www.w3.org/1999/xlink" x="0px" y="0px"
	 viewBox="0 0 48 48" style="enable-background:new 0 0 48 48;" xml:space="preserve">
<style type="text/css">
	.st0{fill:#FFFFFF;}
</style>
<path class="st0" d="M24,32.3c2.6,0,4.8-0.9,6.6-2.7c1.8-1.8,2.7-4,2.7-6.6s-0.9-4.8-2.7-6.6c-1.8-1.8-4-2.7-6.6-2.7
	s-4.8,0.9-6.6,2.7c-1.8,1.8-2.7,4-2.7,6.6s0.9,4.8,2.7,6.6C19.2,31.4,21.4,32.3,24,32.3z M24,29.1c-1.7,0-3.1-0.6-4.3-1.8
	c-1.2-1.2-1.8-2.6-1.8-4.3s0.6-3.1,1.8-4.3c1.2-1.2,2.6-1.8,4.3-1.8s3.1,0.6,4.3,1.8c1.2,1.2,1.8,2.6,1.8,4.3s-0.6,3.1-1.8,4.3
	C27.1,28.5,25.7,29.1,24,29.1z M24,39.3c-5.3,0-10.1-1.5-14.4-4.5c-4.3-3-7.5-7-9.6-11.8c2.1-4.9,5.3-8.8,9.6-11.8S18.7,6.7,24,6.7
	s10.1,1.5,14.4,4.5s7.5,7,9.6,11.8c-2.1,4.9-5.3,8.8-9.6,11.8C34.1,37.8,29.3,39.3,24,39.3z M24,36.1c4.4,0,8.4-1.2,12.1-3.6
	c3.7-2.4,6.5-5.5,8.4-9.5c-1.9-4-4.7-7.1-8.4-9.5S28.4,9.9,24,9.9s-8.4,1.2-12.1,3.6S5.4,19,3.4,23c2,4,4.8,7.1,8.5,9.5
	C15.6,34.9,19.6,36.1,24,36.1z"/>
</svg>
