<svg version="1.1" id="Layer_1" xmlns="http://www.w3.org/2000/svg" xmlns:xlink="http://www.w3.org/1999/xlink" x="0px" y="0px" viewBox="0 0 95.01 21.48" width="100%" height="100%" preserveAspectRatio="none">
<g>
	<path d="M1.8,19.74C0.6,18.58,0,17.03,0,15.09V6.33c0-1.94,0.59-3.48,1.78-4.62C2.97,0.57,4.57,0,6.57,0
		c1.98,0,3.57,0.57,4.77,1.71c1.2,1.14,1.8,2.68,1.8,4.62v0.15c0,0.14-0.04,0.25-0.12,0.34c-0.08,0.09-0.19,0.14-0.33,0.14
		L7.95,7.11c-0.3,0-0.45-0.14-0.45-0.42V5.94c0-0.34-0.09-0.61-0.25-0.81c-0.17-0.2-0.4-0.3-0.68-0.3c-0.28,0-0.51,0.1-0.67,0.3
		C5.72,5.33,5.64,5.6,5.64,5.94v9.63c0,0.34,0.08,0.61,0.25,0.79c0.17,0.19,0.39,0.29,0.67,0.29c0.28,0,0.5-0.09,0.68-0.29
		c0.17-0.19,0.25-0.45,0.25-0.79v-0.81c0-0.28,0.15-0.42,0.45-0.42l4.74,0.15c0.14,0,0.25,0.04,0.33,0.13
		c0.08,0.09,0.12,0.21,0.12,0.35v0.12c0,1.28-0.28,2.41-0.83,3.38C11.76,19.44,11,20.18,10,20.7c-0.99,0.52-2.14,0.78-3.44,0.78
		C4.59,21.48,3,20.9,1.8,19.74z"/>
	<path d="M16.09,19.74c-1.21-1.16-1.81-2.72-1.81-4.68V6.42c0-1.96,0.6-3.52,1.81-4.68C17.3,0.58,18.92,0,20.94,0
		s3.63,0.58,4.85,1.74c1.21,1.16,1.81,2.72,1.81,4.68v8.64c0,1.96-0.6,3.52-1.81,4.68c-1.21,1.16-2.83,1.74-4.85,1.74
		S17.3,20.9,16.09,19.74z M21.69,16.29c0.18-0.24,0.27-0.57,0.27-0.99V6.18c0-0.42-0.09-0.75-0.27-0.99
		c-0.18-0.24-0.43-0.36-0.75-0.36s-0.57,0.12-0.75,0.36c-0.18,0.24-0.27,0.57-0.27,0.99v9.12c0,0.42,0.09,0.75,0.27,0.99
		c0.18,0.24,0.43,0.36,0.75,0.36S21.51,16.53,21.69,16.29z"/>
	<path d="M30.61,19.74c-1.21-1.16-1.81-2.72-1.81-4.68V6.42c0-1.96,0.6-3.52,1.81-4.68C31.82,0.58,33.44,0,35.46,0
		s3.63,0.58,4.85,1.74c1.21,1.16,1.81,2.72,1.81,4.68v8.64c0,1.96-0.6,3.52-1.81,4.68c-1.21,1.16-2.83,1.74-4.85,1.74
		S31.82,20.9,30.61,19.74z M36.21,16.29c0.18-0.24,0.27-0.57,0.27-0.99V6.18c0-0.42-0.09-0.75-0.27-0.99
		c-0.18-0.24-0.43-0.36-0.75-0.36s-0.57,0.12-0.75,0.36c-0.18,0.24-0.27,0.57-0.27,0.99v9.12c0,0.42,0.09,0.75,0.27,0.99
		c0.18,0.24,0.43,0.36,0.75,0.36S36.03,16.53,36.21,16.29z"/>
	<path d="M43.62,21.36c-0.08-0.08-0.12-0.19-0.12-0.34V0.46c0-0.14,0.04-0.26,0.12-0.34C43.7,0.04,43.81,0,43.95,0h4.74
		c0.14,0,0.25,0.04,0.33,0.12c0.08,0.08,0.12,0.19,0.12,0.34v6.08c0,0.08,0.02,0.13,0.08,0.14c0.05,0.01,0.09-0.03,0.13-0.11
		l2.52-6.2C51.97,0.12,52.15,0,52.41,0h4.95c0.16,0,0.28,0.05,0.36,0.15c0.08,0.1,0.08,0.24,0,0.4L53.49,9.6
		c-0.02,0.08-0.02,0.16,0,0.25l4.35,11.11c0.02,0.06,0.03,0.13,0.03,0.21c0,0.2-0.13,0.31-0.39,0.31H52.5
		c-0.26,0-0.44-0.12-0.54-0.37l-2.31-6.29c-0.02-0.1-0.06-0.15-0.1-0.15c-0.05,0-0.1,0.05-0.14,0.15l-0.24,0.61
		c-0.02,0.04-0.03,0.12-0.03,0.25v5.34c0,0.14-0.04,0.26-0.12,0.34c-0.08,0.08-0.19,0.12-0.33,0.12h-4.74
		C43.81,21.48,43.7,21.44,43.62,21.36z"/>
	<path d="M59.13,21.36c-0.08-0.08-0.12-0.19-0.12-0.34V0.46c0-0.14,0.04-0.26,0.12-0.34C59.21,0.04,59.32,0,59.46,0h4.74
		c0.14,0,0.25,0.04,0.33,0.12c0.08,0.08,0.12,0.19,0.12,0.34v20.56c0,0.14-0.04,0.26-0.12,0.34c-0.08,0.08-0.19,0.12-0.33,0.12
		h-4.74C59.32,21.48,59.21,21.44,59.13,21.36z"/>
	<path d="M75.03,0.12C75.11,0.04,75.22,0,75.36,0h4.68c0.14,0,0.25,0.04,0.33,0.12c0.08,0.08,0.12,0.19,0.12,0.34v20.56
		c0,0.14-0.04,0.26-0.12,0.34c-0.08,0.08-0.19,0.12-0.33,0.12H74.7c-0.26,0-0.42-0.13-0.48-0.4l-2.28-9.3
		c-0.02-0.06-0.06-0.09-0.12-0.09c-0.06,0-0.09,0.04-0.09,0.12l0.06,9.21c0,0.14-0.04,0.26-0.12,0.34
		c-0.08,0.08-0.19,0.12-0.33,0.12h-4.68c-0.14,0-0.25-0.04-0.33-0.12c-0.08-0.08-0.12-0.19-0.12-0.34V0.46
		c0-0.14,0.04-0.26,0.12-0.34C66.41,0.04,66.52,0,66.66,0h5.28c0.26,0,0.42,0.13,0.48,0.4l2.31,9.33c0.02,0.08,0.06,0.12,0.12,0.12
		c0.06,0,0.09-0.04,0.09-0.12l-0.03-9.27C74.91,0.32,74.95,0.2,75.03,0.12z"/>
	<path d="M83.67,19.81c-1.2-1.11-1.8-2.59-1.8-4.46V6.09c0-1.86,0.6-3.34,1.8-4.44C84.87,0.55,86.46,0,88.44,0
		c1.3,0,2.45,0.25,3.44,0.75c0.99,0.5,1.76,1.22,2.31,2.15c0.55,0.93,0.83,2.02,0.83,3.26v0.99c0,0.14-0.04,0.25-0.12,0.33
		c-0.08,0.08-0.19,0.12-0.33,0.12h-4.74c-0.14,0-0.25-0.04-0.33-0.12c-0.08-0.08-0.12-0.19-0.12-0.33V6.09
		c0-0.38-0.09-0.69-0.25-0.92c-0.17-0.23-0.4-0.35-0.68-0.35s-0.5,0.12-0.67,0.35s-0.25,0.54-0.25,0.92v9.3
		c0,0.38,0.08,0.69,0.25,0.92s0.39,0.34,0.67,0.34s0.5-0.12,0.68-0.34c0.17-0.23,0.25-0.54,0.25-0.92v-1.47
		c0-0.12-0.06-0.18-0.18-0.18h-0.24c-0.14,0-0.25-0.04-0.33-0.12c-0.08-0.08-0.12-0.19-0.12-0.33V9.84c0-0.14,0.04-0.25,0.12-0.33
		c0.08-0.08,0.19-0.12,0.33-0.12h5.61c0.14,0,0.25,0.04,0.33,0.12c0.08,0.08,0.12,0.19,0.12,0.33v5.52c0,1.22-0.28,2.29-0.83,3.23
		c-0.55,0.93-1.32,1.64-2.31,2.14s-2.14,0.75-3.44,0.75C86.46,21.48,84.87,20.93,83.67,19.81z"/>
</g>
</svg>
