<svg version="1.1" id="Layer_1" xmlns="http://www.w3.org/2000/svg" xmlns:xlink="http://www.w3.org/1999/xlink" x="0px" y="0px"
	 viewBox="0 0 100.05 21" width="100%" height="100%" preserveAspectRatio="none">
<g>
	<path d="M0.12,20.88C0.04,20.8,0,20.69,0,20.55V0.45C0,0.31,0.04,0.2,0.12,0.12C0.2,0.04,0.31,0,0.45,0h5.91
		c1.32,0,2.48,0.25,3.49,0.75c1.01,0.5,1.79,1.21,2.36,2.12c0.56,0.91,0.84,1.96,0.84,3.13v9c0,1.18-0.28,2.23-0.84,3.13
		c-0.56,0.91-1.35,1.62-2.36,2.12C8.85,20.75,7.68,21,6.36,21H0.45C0.31,21,0.2,20.96,0.12,20.88z M5.82,16.17l0.42-0.03
		c0.32-0.02,0.59-0.17,0.81-0.45c0.22-0.28,0.34-0.64,0.36-1.08V6.36c0-0.46-0.11-0.83-0.33-1.11C6.86,4.97,6.57,4.83,6.21,4.83
		H5.82c-0.12,0-0.18,0.06-0.18,0.18v10.98C5.64,16.11,5.7,16.17,5.82,16.17z"/>
	<path d="M22.2,20.61l-1.83-7.53c-0.04-0.1-0.08-0.15-0.12-0.15c-0.08,0-0.12,0.06-0.12,0.18v7.44c0,0.14-0.04,0.25-0.12,0.33
		C19.93,20.96,19.82,21,19.68,21h-4.74c-0.14,0-0.25-0.04-0.33-0.12c-0.08-0.08-0.12-0.19-0.12-0.33V0.45
		c0-0.14,0.04-0.25,0.12-0.33C14.69,0.04,14.8,0,14.94,0h6.75c1.2,0,2.27,0.29,3.2,0.85s1.65,1.36,2.17,2.37
		c0.52,1.01,0.78,2.17,0.78,3.46c0,1.1-0.19,2.08-0.57,2.96c-0.38,0.87-0.93,1.58-1.65,2.11c-0.08,0.06-0.11,0.14-0.09,0.24
		l2.43,8.49c0.02,0.04,0.03,0.09,0.03,0.15c0,0.24-0.14,0.36-0.42,0.36h-4.89C22.42,21,22.26,20.87,22.2,20.61z M20.31,4.83
		c-0.12,0-0.18,0.06-0.18,0.18v3.45c0,0.12,0.06,0.18,0.18,0.18h0.39c0.44,0,0.8-0.17,1.08-0.5c0.28-0.33,0.42-0.79,0.42-1.4
		c0-0.62-0.13-1.1-0.4-1.42c-0.27-0.33-0.64-0.5-1.1-0.5H20.31z"/>
	<path d="M38.16,20.58l-0.33-2.25c0-0.04-0.02-0.08-0.06-0.12c-0.04-0.04-0.09-0.06-0.15-0.06h-2.64c-0.06,0-0.11,0.02-0.15,0.06
		c-0.04,0.04-0.06,0.08-0.06,0.12l-0.3,2.25C34.45,20.86,34.29,21,33.99,21h-4.71c-0.32,0-0.45-0.16-0.39-0.48l4.26-20.13
		C33.21,0.13,33.38,0,33.66,0h5.46c0.28,0,0.45,0.13,0.51,0.39l4.26,20.13v0.12c0,0.24-0.14,0.36-0.42,0.36h-4.83
		C38.34,21,38.18,20.86,38.16,20.58z M35.58,13.83h1.41c0.14,0,0.19-0.06,0.15-0.18l-0.81-5.4c-0.02-0.08-0.05-0.12-0.09-0.12
		s-0.07,0.04-0.09,0.12l-0.72,5.4C35.43,13.77,35.48,13.83,35.58,13.83z"/>
	<path d="M46.2,20.61L42.12,0.48V0.36c0-0.24,0.14-0.36,0.42-0.36h4.89c0.3,0,0.46,0.14,0.48,0.42l1.02,9.15
		c0,0.04,0.03,0.07,0.09,0.08c0.06,0.01,0.09-0.02,0.09-0.08l1.11-9.15C50.24,0.14,50.4,0,50.7,0h3.66c0.3,0,0.46,0.14,0.48,0.42
		L56.1,9.6c0,0.04,0.03,0.06,0.1,0.07c0.07,0.01,0.1-0.01,0.1-0.07l0.87-9.18C57.2,0.14,57.35,0,57.63,0h4.77
		c0.34,0,0.48,0.16,0.42,0.48l-3.84,20.13C58.92,20.87,58.75,21,58.47,21h-4.14c-0.3,0-0.46-0.14-0.48-0.42l-1.26-9.63
		c0-0.06-0.04-0.09-0.1-0.09c-0.07,0-0.11,0.03-0.11,0.09l-1.02,9.63C51.34,20.86,51.18,21,50.88,21h-4.17
		C46.43,21,46.26,20.87,46.2,20.61z"/>
	<path d="M64.17,20.88c-0.08-0.08-0.12-0.19-0.12-0.33V0.45c0-0.14,0.04-0.25,0.12-0.33C64.25,0.04,64.36,0,64.5,0h4.74
		c0.14,0,0.25,0.04,0.33,0.12c0.08,0.08,0.12,0.19,0.12,0.33v20.1c0,0.14-0.04,0.25-0.12,0.33C69.49,20.96,69.38,21,69.24,21H64.5
		C64.36,21,64.25,20.96,64.17,20.88z"/>
	<path d="M80.07,0.12C80.15,0.04,80.26,0,80.4,0h4.68c0.14,0,0.25,0.04,0.33,0.12c0.08,0.08,0.12,0.19,0.12,0.33v20.1
		c0,0.14-0.04,0.25-0.12,0.33C85.33,20.96,85.22,21,85.08,21h-5.34c-0.26,0-0.42-0.13-0.48-0.39l-2.28-9.09
		c-0.02-0.06-0.06-0.09-0.12-0.09s-0.09,0.04-0.09,0.12l0.06,9c0,0.14-0.04,0.25-0.12,0.33C76.63,20.96,76.52,21,76.38,21H71.7
		c-0.14,0-0.25-0.04-0.33-0.12c-0.08-0.08-0.12-0.19-0.12-0.33V0.45c0-0.14,0.04-0.25,0.12-0.33C71.45,0.04,71.56,0,71.7,0h5.28
		c0.26,0,0.42,0.13,0.48,0.39l2.31,9.12c0.02,0.08,0.06,0.12,0.12,0.12c0.06,0,0.09-0.04,0.09-0.12l-0.03-9.06
		C79.95,0.31,79.99,0.2,80.07,0.12z"/>
	<path d="M88.71,19.37c-1.2-1.09-1.8-2.54-1.8-4.36V5.95c0-1.82,0.6-3.27,1.8-4.34C89.91,0.54,91.5,0,93.48,0
		c1.3,0,2.45,0.24,3.44,0.73c0.99,0.49,1.76,1.19,2.31,2.1c0.55,0.91,0.83,1.97,0.83,3.18v0.97c0,0.14-0.04,0.24-0.12,0.32
		c-0.08,0.08-0.19,0.12-0.33,0.12h-4.74c-0.14,0-0.25-0.04-0.33-0.12c-0.08-0.08-0.12-0.19-0.12-0.32V5.95
		c0-0.37-0.08-0.67-0.25-0.89c-0.17-0.22-0.4-0.34-0.68-0.34c-0.28,0-0.51,0.11-0.67,0.34c-0.17,0.22-0.25,0.52-0.25,0.89v9.09
		c0,0.37,0.08,0.67,0.25,0.89c0.17,0.22,0.39,0.34,0.67,0.34c0.28,0,0.5-0.11,0.68-0.34c0.17-0.22,0.25-0.52,0.25-0.89v-1.44
		c0-0.12-0.06-0.18-0.18-0.18h-0.24c-0.14,0-0.25-0.04-0.33-0.12c-0.08-0.08-0.12-0.19-0.12-0.32V9.62c0-0.14,0.04-0.24,0.12-0.32
		c0.08-0.08,0.19-0.12,0.33-0.12h5.61c0.14,0,0.25,0.04,0.33,0.12c0.08,0.08,0.12,0.19,0.12,0.32v5.4c0,1.19-0.28,2.24-0.83,3.15
		c-0.55,0.91-1.32,1.61-2.31,2.1C95.92,20.76,94.78,21,93.48,21C91.5,21,89.91,20.46,88.71,19.37z"/>
</g>
</svg>
