<svg version="1.1" id="Layer_1" xmlns="http://www.w3.org/2000/svg" xmlns:xlink="http://www.w3.org/1999/xlink" x="0px" y="0px"
	 viewBox="0 0 73.29 21" width="100%" height="100%" preserveAspectRatio="none">
<g>
	<path d="M7.5,0.12C7.58,0.04,7.69,0,7.83,0h4.74c0.14,0,0.25,0.04,0.33,0.12c0.08,0.08,0.12,0.19,0.12,0.33v20.1
		c0,0.14-0.04,0.25-0.12,0.33C12.82,20.96,12.71,21,12.57,21H7.83c-0.14,0-0.25-0.04-0.33-0.12c-0.08-0.08-0.12-0.19-0.12-0.33
		v-7.47c0-0.12-0.06-0.18-0.18-0.18H5.82c-0.12,0-0.18,0.06-0.18,0.18v7.47c0,0.14-0.04,0.25-0.12,0.33C5.44,20.96,5.33,21,5.19,21
		H0.45c-0.14,0-0.25-0.04-0.33-0.12C0.04,20.8,0,20.69,0,20.55V0.45C0,0.31,0.04,0.2,0.12,0.12C0.2,0.04,0.31,0,0.45,0h4.74
		c0.14,0,0.25,0.04,0.33,0.12C5.6,0.2,5.64,0.31,5.64,0.45v7.44c0,0.12,0.06,0.18,0.18,0.18H7.2c0.12,0,0.18-0.06,0.18-0.18V0.45
		C7.38,0.31,7.42,0.2,7.5,0.12z"/>
	<path d="M14.7,20.88c-0.08-0.08-0.12-0.19-0.12-0.33V0.45c0-0.14,0.04-0.25,0.12-0.33C14.78,0.04,14.89,0,15.03,0h4.74
		c0.14,0,0.25,0.04,0.33,0.12c0.08,0.08,0.12,0.19,0.12,0.33v20.1c0,0.14-0.04,0.25-0.12,0.33C20.02,20.96,19.91,21,19.77,21h-4.74
		C14.89,21,14.78,20.96,14.7,20.88z"/>
	<path d="M21.9,20.88c-0.08-0.08-0.12-0.19-0.12-0.33V0.45c0-0.14,0.04-0.25,0.12-0.33C21.98,0.04,22.09,0,22.23,0h4.74
		c0.14,0,0.25,0.04,0.33,0.12c0.08,0.08,0.12,0.19,0.12,0.33v5.94c0,0.08,0.02,0.12,0.08,0.13c0.05,0.01,0.09-0.02,0.13-0.1
		l2.52-6.06C30.25,0.12,30.43,0,30.69,0h4.95C35.8,0,35.92,0.05,36,0.15c0.08,0.1,0.08,0.23,0,0.39l-4.23,8.85
		c-0.02,0.08-0.02,0.16,0,0.24l4.35,10.86c0.02,0.06,0.03,0.13,0.03,0.21c0,0.2-0.13,0.3-0.39,0.3h-4.98
		c-0.26,0-0.44-0.12-0.54-0.36l-2.31-6.15c-0.02-0.1-0.06-0.15-0.1-0.15c-0.05,0-0.1,0.05-0.14,0.15l-0.24,0.6
		c-0.02,0.04-0.03,0.12-0.03,0.24v5.22c0,0.14-0.04,0.25-0.12,0.33C27.22,20.96,27.11,21,26.97,21h-4.74
		C22.09,21,21.98,20.96,21.9,20.88z"/>
	<path d="M37.41,20.88c-0.08-0.08-0.12-0.19-0.12-0.33V0.45c0-0.14,0.04-0.25,0.12-0.33C37.49,0.04,37.6,0,37.74,0h4.74
		c0.14,0,0.25,0.04,0.33,0.12c0.08,0.08,0.12,0.19,0.12,0.33v20.1c0,0.14-0.04,0.25-0.12,0.33C42.73,20.96,42.62,21,42.48,21h-4.74
		C37.6,21,37.49,20.96,37.41,20.88z"/>
	<path d="M53.31,0.12C53.39,0.04,53.5,0,53.64,0h4.68c0.14,0,0.25,0.04,0.33,0.12c0.08,0.08,0.12,0.19,0.12,0.33v20.1
		c0,0.14-0.04,0.25-0.12,0.33C58.57,20.96,58.46,21,58.32,21h-5.34c-0.26,0-0.42-0.13-0.48-0.39l-2.28-9.09
		c-0.02-0.06-0.06-0.09-0.12-0.09c-0.06,0-0.09,0.04-0.09,0.12l0.06,9c0,0.14-0.04,0.25-0.12,0.33C49.87,20.96,49.76,21,49.62,21
		h-4.68c-0.14,0-0.25-0.04-0.33-0.12c-0.08-0.08-0.12-0.19-0.12-0.33V0.45c0-0.14,0.04-0.25,0.12-0.33C44.69,0.04,44.8,0,44.94,0
		h5.28c0.26,0,0.42,0.13,0.48,0.39l2.31,9.12c0.02,0.08,0.06,0.12,0.12,0.12c0.06,0,0.09-0.04,0.09-0.12l-0.03-9.06
		C53.19,0.31,53.23,0.2,53.31,0.12z"/>
	<path d="M61.95,19.37c-1.2-1.09-1.8-2.54-1.8-4.36V5.95c0-1.82,0.6-3.27,1.8-4.34C63.15,0.54,64.74,0,66.72,0
		c1.3,0,2.45,0.24,3.44,0.73c0.99,0.49,1.76,1.19,2.31,2.1c0.55,0.91,0.83,1.97,0.83,3.18v0.97c0,0.14-0.04,0.24-0.12,0.32
		c-0.08,0.08-0.19,0.12-0.33,0.12H68.1c-0.14,0-0.25-0.04-0.33-0.12c-0.08-0.08-0.12-0.19-0.12-0.32V5.95
		c0-0.37-0.09-0.67-0.25-0.89c-0.17-0.22-0.4-0.34-0.68-0.34s-0.5,0.11-0.67,0.34s-0.25,0.52-0.25,0.89v9.09
		c0,0.37,0.08,0.67,0.25,0.89s0.39,0.34,0.67,0.34s0.5-0.11,0.68-0.34c0.17-0.22,0.25-0.52,0.25-0.89v-1.44
		c0-0.12-0.06-0.18-0.18-0.18h-0.24c-0.14,0-0.25-0.04-0.33-0.12c-0.08-0.08-0.12-0.19-0.12-0.32V9.62c0-0.14,0.04-0.24,0.12-0.32
		c0.08-0.08,0.19-0.12,0.33-0.12h5.61c0.14,0,0.25,0.04,0.33,0.12c0.08,0.08,0.12,0.19,0.12,0.32v5.4c0,1.19-0.28,2.24-0.83,3.15
		c-0.55,0.91-1.32,1.61-2.31,2.1C69.16,20.76,68.02,21,66.72,21C64.74,21,63.15,20.46,61.95,19.37z"/>
</g>
</svg>
