<svg version="1.1" id="muay-thai" xmlns="http://www.w3.org/2000/svg" xmlns:xlink="http://www.w3.org/1999/xlink" x="0px" y="0px"
	 width="100%" height="100%" viewBox="0 0 119.34 21" preserveAspectRatio="none">
<g>
	<path d="M10.59,0h4.68c0.14,0,0.25,0.04,0.33,0.12c0.08,0.08,0.12,0.19,0.12,0.33v20.1c0,0.14-0.04,0.25-0.12,0.33
		C15.52,20.96,15.41,21,15.27,21h-4.74c-0.14,0-0.25-0.04-0.33-0.12c-0.08-0.08-0.12-0.19-0.12-0.33V8.34
		c0-0.08-0.03-0.13-0.08-0.15C9.96,8.17,9.91,8.2,9.87,8.28l-1.71,2.88l-0.3,0.54H7.83L5.85,8.28C5.81,8.2,5.76,8.17,5.72,8.17
		C5.67,8.19,5.64,8.24,5.64,8.34v12.21c0,0.14-0.04,0.25-0.12,0.33C5.44,20.96,5.33,21,5.19,21H0.45c-0.14,0-0.25-0.04-0.33-0.12
		C0.04,20.8,0,20.69,0,20.55V0.45C0,0.31,0.04,0.2,0.12,0.12C0.2,0.04,0.31,0,0.45,0h4.68c0.26,0,0.44,0.11,0.54,0.33l2.1,3.84
		c0.04,0.06,0.08,0.1,0.14,0.1c0.05,0.01,0.08-0.02,0.1-0.1l2.04-3.84C10.17,0.11,10.35,0,10.59,0z"/>
	<path d="M20.16,20.2c-0.98-0.53-1.74-1.29-2.28-2.25c-0.54-0.97-0.81-2.09-0.81-3.35V0.45c0-0.14,0.04-0.25,0.12-0.33
		C17.27,0.04,17.38,0,17.52,0h4.74c0.14,0,0.25,0.04,0.33,0.12c0.08,0.08,0.12,0.19,0.12,0.33v14.68c0,0.34,0.08,0.6,0.24,0.8
		c0.16,0.2,0.37,0.3,0.63,0.3c0.26,0,0.46-0.1,0.62-0.3c0.15-0.2,0.22-0.46,0.22-0.8V0.45c0-0.14,0.04-0.25,0.12-0.33
		C24.62,0.04,24.73,0,24.87,0h4.74c0.14,0,0.25,0.04,0.33,0.12c0.08,0.08,0.12,0.19,0.12,0.33v14.15c0,1.27-0.27,2.38-0.81,3.35
		c-0.54,0.97-1.3,1.72-2.28,2.25c-0.98,0.53-2.11,0.8-3.39,0.8C22.28,21,21.14,20.73,20.16,20.2z"/>
	<path d="M39.93,20.58l-0.33-2.25c0-0.04-0.02-0.08-0.06-0.12c-0.04-0.04-0.09-0.06-0.15-0.06h-2.64c-0.06,0-0.11,0.02-0.15,0.06
		c-0.04,0.04-0.06,0.08-0.06,0.12l-0.3,2.25C36.22,20.86,36.06,21,35.76,21h-4.71c-0.32,0-0.45-0.16-0.39-0.48l4.26-20.13
		C34.98,0.13,35.15,0,35.43,0h5.46c0.28,0,0.45,0.13,0.51,0.39l4.26,20.13v0.12c0,0.24-0.14,0.36-0.42,0.36h-4.83
		C40.11,21,39.95,20.86,39.93,20.58z M37.35,13.83h1.41c0.14,0,0.19-0.06,0.15-0.18l-0.81-5.4c-0.02-0.08-0.05-0.12-0.09-0.12
		c-0.04,0-0.07,0.04-0.09,0.12l-0.72,5.4C37.2,13.77,37.25,13.83,37.35,13.83z"/>
	<path d="M48.9,20.82c-0.08-0.08-0.12-0.19-0.12-0.33v-6.9c0-0.12-0.01-0.2-0.03-0.24l-4.2-12.84c-0.02-0.04-0.03-0.1-0.03-0.18
		c0-0.22,0.13-0.33,0.39-0.33h4.98c0.28,0,0.45,0.13,0.51,0.39l1.11,5.91c0.02,0.08,0.06,0.12,0.12,0.12s0.1-0.04,0.12-0.12
		l1.11-5.91C52.92,0.13,53.09,0,53.37,0h4.98c0.16,0,0.27,0.04,0.33,0.13c0.06,0.09,0.07,0.22,0.03,0.38l-4.26,12.84
		c-0.02,0.04-0.03,0.12-0.03,0.24v6.9c0,0.14-0.04,0.25-0.12,0.33c-0.08,0.08-0.19,0.12-0.33,0.12h-4.74
		C49.09,20.94,48.98,20.9,48.9,20.82z"/>
	<path d="M57.81,14.73c-0.08-0.08-0.12-0.19-0.12-0.33v-3.9c0-0.14,0.04-0.25,0.12-0.33c0.08-0.08,0.19-0.12,0.33-0.12h8.31
		c0.14,0,0.25,0.04,0.33,0.12c0.08,0.08,0.12,0.19,0.12,0.33v3.9c0,0.14-0.04,0.25-0.12,0.33c-0.08,0.08-0.19,0.12-0.33,0.12h-8.31
		C58,14.85,57.89,14.81,57.81,14.73z"/>
	<path d="M81.75,0.12c0.08,0.08,0.12,0.19,0.12,0.33v3.93c0,0.14-0.04,0.25-0.12,0.33c-0.08,0.08-0.19,0.12-0.33,0.12h-3.54
		c-0.12,0-0.18,0.06-0.18,0.18v15.54c0,0.14-0.04,0.25-0.12,0.33C77.5,20.96,77.39,21,77.25,21h-4.74c-0.14,0-0.25-0.04-0.33-0.12
		c-0.08-0.08-0.12-0.19-0.12-0.33V5.01c0-0.12-0.06-0.18-0.18-0.18h-3.45c-0.14,0-0.25-0.04-0.33-0.12
		c-0.08-0.08-0.12-0.19-0.12-0.33V0.45c0-0.14,0.04-0.25,0.12-0.33C68.18,0.04,68.29,0,68.43,0h12.99C81.56,0,81.67,0.04,81.75,0.12
		z"/>
	<path d="M90.69,0.12C90.77,0.04,90.88,0,91.02,0h4.74c0.14,0,0.25,0.04,0.33,0.12c0.08,0.08,0.12,0.19,0.12,0.33v20.1
		c0,0.14-0.04,0.25-0.12,0.33C96.01,20.96,95.9,21,95.76,21h-4.74c-0.14,0-0.25-0.04-0.33-0.12c-0.08-0.08-0.12-0.19-0.12-0.33
		v-7.47c0-0.12-0.06-0.18-0.18-0.18h-1.38c-0.12,0-0.18,0.06-0.18,0.18v7.47c0,0.14-0.04,0.25-0.12,0.33
		C88.63,20.96,88.52,21,88.38,21h-4.74c-0.14,0-0.25-0.04-0.33-0.12c-0.08-0.08-0.12-0.19-0.12-0.33V0.45
		c0-0.14,0.04-0.25,0.12-0.33C83.39,0.04,83.5,0,83.64,0h4.74c0.14,0,0.25,0.04,0.33,0.12c0.08,0.08,0.12,0.19,0.12,0.33v7.44
		c0,0.12,0.06,0.18,0.18,0.18h1.38c0.12,0,0.18-0.06,0.18-0.18V0.45C90.57,0.31,90.61,0.2,90.69,0.12z"/>
	<path d="M106.74,20.58l-0.33-2.25c0-0.04-0.02-0.08-0.06-0.12c-0.04-0.04-0.09-0.06-0.15-0.06h-2.64c-0.06,0-0.11,0.02-0.15,0.06
		c-0.04,0.04-0.06,0.08-0.06,0.12l-0.3,2.25c-0.02,0.28-0.18,0.42-0.48,0.42h-4.71c-0.32,0-0.45-0.16-0.39-0.48l4.26-20.13
		c0.06-0.26,0.23-0.39,0.51-0.39h5.46c0.28,0,0.45,0.13,0.51,0.39l4.26,20.13v0.12c0,0.24-0.14,0.36-0.42,0.36h-4.83
		C106.92,21,106.76,20.86,106.74,20.58z M104.16,13.83h1.41c0.14,0,0.19-0.06,0.15-0.18l-0.81-5.4c-0.02-0.08-0.05-0.12-0.09-0.12
		c-0.04,0-0.07,0.04-0.09,0.12l-0.72,5.4C104.01,13.77,104.06,13.83,104.16,13.83z"/>
	<path d="M113.82,20.88c-0.08-0.08-0.12-0.19-0.12-0.33V0.45c0-0.14,0.04-0.25,0.12-0.33C113.9,0.04,114.01,0,114.15,0h4.74
		c0.14,0,0.25,0.04,0.33,0.12c0.08,0.08,0.12,0.19,0.12,0.33v20.1c0,0.14-0.04,0.25-0.12,0.33c-0.08,0.08-0.19,0.12-0.33,0.12h-4.74
		C114.01,21,113.9,20.96,113.82,20.88z"/>
</g>
</svg>
