<svg version="1.1" id="Layer_1" xmlns="http://www.w3.org/2000/svg" xmlns:xlink="http://www.w3.org/1999/xlink" x="0px" y="0px"
	 viewBox="0 0 61.83 21" width="100%" height="100%" preserveAspectRatio="none">
<g>
	<path d="M10.4,0.85c0.93,0.57,1.65,1.37,2.17,2.39c0.52,1.02,0.78,2.19,0.78,3.51c0,1.28-0.25,2.41-0.73,3.39
		c-0.49,0.98-1.18,1.74-2.06,2.26c-0.88,0.53-1.9,0.8-3.06,0.8H5.82c-0.12,0-0.18,0.06-0.18,0.18v7.17c0,0.14-0.04,0.25-0.12,0.33
		C5.44,20.96,5.33,21,5.19,21H0.45c-0.14,0-0.25-0.04-0.33-0.12S0,20.69,0,20.55V0.45C0,0.31,0.04,0.2,0.12,0.12
		C0.2,0.04,0.31,0,0.45,0H7.2C8.4,0,9.46,0.29,10.4,0.85z M7.3,8.35c0.27-0.33,0.41-0.83,0.41-1.48c0-0.66-0.14-1.17-0.41-1.52
		C7.03,5.01,6.67,4.83,6.21,4.83H5.82c-0.12,0-0.18,0.06-0.18,0.18v3.66c0,0.12,0.06,0.18,0.18,0.18h0.39
		C6.67,8.85,7.03,8.69,7.3,8.35z"/>
	<path d="M14.61,20.88c-0.08-0.08-0.12-0.19-0.12-0.33V0.45c0-0.14,0.04-0.25,0.12-0.33C14.69,0.04,14.8,0,14.94,0h4.74
		c0.14,0,0.25,0.04,0.33,0.12c0.08,0.08,0.12,0.19,0.12,0.33v20.1c0,0.14-0.04,0.25-0.12,0.33S19.82,21,19.68,21h-4.74
		C14.8,21,14.69,20.96,14.61,20.88z"/>
	<path d="M21.39,20.88c-0.08-0.08-0.12-0.19-0.12-0.33v-4.08c0-0.18,0.05-0.37,0.15-0.57l5.73-10.86c0.06-0.14,0.02-0.21-0.12-0.21
		h-5.31c-0.14,0-0.25-0.04-0.33-0.12c-0.08-0.08-0.12-0.19-0.12-0.33V0.45c0-0.14,0.04-0.25,0.12-0.33C21.47,0.04,21.58,0,21.72,0
		h11.04c0.14,0,0.25,0.04,0.33,0.12c0.08,0.08,0.12,0.19,0.12,0.33v4.08c0,0.18-0.05,0.37-0.15,0.57l-5.79,10.86
		c-0.06,0.14-0.02,0.21,0.12,0.21h5.37c0.14,0,0.25,0.04,0.33,0.12c0.08,0.08,0.12,0.19,0.12,0.33v3.93c0,0.14-0.04,0.25-0.12,0.33
		C33.01,20.96,32.9,21,32.76,21H21.72C21.58,21,21.47,20.96,21.39,20.88z"/>
	<path d="M34.11,20.88c-0.08-0.08-0.12-0.19-0.12-0.33v-4.08c0-0.18,0.05-0.37,0.15-0.57l5.73-10.86c0.06-0.14,0.02-0.21-0.12-0.21
		h-5.31c-0.14,0-0.25-0.04-0.33-0.12c-0.08-0.08-0.12-0.19-0.12-0.33V0.45c0-0.14,0.04-0.25,0.12-0.33C34.19,0.04,34.3,0,34.44,0
		h11.04c0.14,0,0.25,0.04,0.33,0.12c0.08,0.08,0.12,0.19,0.12,0.33v4.08c0,0.18-0.05,0.37-0.15,0.57l-5.79,10.86
		c-0.06,0.14-0.02,0.21,0.12,0.21h5.37c0.14,0,0.25,0.04,0.33,0.12c0.08,0.08,0.12,0.19,0.12,0.33v3.93c0,0.14-0.04,0.25-0.12,0.33
		C45.73,20.96,45.62,21,45.48,21H34.44C34.3,21,34.19,20.96,34.11,20.88z"/>
	<path d="M56.1,20.58l-0.33-2.25c0-0.04-0.02-0.08-0.06-0.12s-0.09-0.06-0.15-0.06h-2.64c-0.06,0-0.11,0.02-0.15,0.06
		s-0.06,0.08-0.06,0.12l-0.3,2.25C52.39,20.86,52.23,21,51.93,21h-4.71c-0.32,0-0.45-0.16-0.39-0.48l4.26-20.13
		C51.15,0.13,51.32,0,51.6,0h5.46c0.28,0,0.45,0.13,0.51,0.39l4.26,20.13v0.12c0,0.24-0.14,0.36-0.42,0.36h-4.83
		C56.28,21,56.12,20.86,56.1,20.58z M53.52,13.83h1.41c0.14,0,0.19-0.06,0.15-0.18l-0.81-5.4c-0.02-0.08-0.05-0.12-0.09-0.12
		c-0.04,0-0.07,0.04-0.09,0.12l-0.72,5.4C53.37,13.77,53.42,13.83,53.52,13.83z"/>
</g>
</svg>
