<svg version="1.1" id="Layer_1" xmlns="http://www.w3.org/2000/svg" xmlns:xlink="http://www.w3.org/1999/xlink" x="0px" y="0px"
	 viewBox="0 0 43.53 21" width="100%" height="100%" preserveAspectRatio="none">
<g>
	<path d="M13.77,0.12c0.08,0.08,0.12,0.19,0.12,0.33v3.93c0,0.14-0.04,0.25-0.12,0.33c-0.08,0.08-0.19,0.12-0.33,0.12H9.9
		c-0.12,0-0.18,0.06-0.18,0.18v15.54c0,0.14-0.04,0.25-0.12,0.33C9.52,20.96,9.41,21,9.27,21H4.53c-0.14,0-0.25-0.04-0.33-0.12
		c-0.08-0.08-0.12-0.19-0.12-0.33V5.01c0-0.12-0.06-0.18-0.18-0.18H0.45c-0.14,0-0.25-0.04-0.33-0.12C0.04,4.63,0,4.52,0,4.38V0.45
		C0,0.31,0.04,0.2,0.12,0.12C0.2,0.04,0.31,0,0.45,0h12.99C13.58,0,13.69,0.04,13.77,0.12z"/>
	<path d="M27.09,4.71c-0.08,0.08-0.19,0.12-0.33,0.12h-5.73c-0.12,0-0.18,0.06-0.18,0.18v2.88c0,0.12,0.06,0.18,0.18,0.18H24
		c0.14,0,0.25,0.04,0.33,0.12c0.08,0.08,0.12,0.19,0.12,0.33v3.93c0,0.14-0.04,0.25-0.12,0.33c-0.08,0.08-0.19,0.12-0.33,0.12h-2.97
		c-0.12,0-0.18,0.06-0.18,0.18v2.91c0,0.12,0.06,0.18,0.18,0.18h5.73c0.14,0,0.25,0.04,0.33,0.12c0.08,0.08,0.12,0.19,0.12,0.33
		v3.93c0,0.14-0.04,0.25-0.12,0.33C27.01,20.96,26.9,21,26.76,21h-11.1c-0.14,0-0.25-0.04-0.33-0.12c-0.08-0.08-0.12-0.19-0.12-0.33
		V0.45c0-0.14,0.04-0.25,0.12-0.33C15.41,0.04,15.52,0,15.66,0h11.1c0.14,0,0.25,0.04,0.33,0.12c0.08,0.08,0.12,0.19,0.12,0.33v3.93
		C27.21,4.52,27.17,4.63,27.09,4.71z"/>
	<path d="M37.8,20.58l-0.33-2.25c0-0.04-0.02-0.08-0.06-0.12c-0.04-0.04-0.09-0.06-0.15-0.06h-2.64c-0.06,0-0.11,0.02-0.15,0.06
		c-0.04,0.04-0.06,0.08-0.06,0.12l-0.3,2.25C34.09,20.86,33.93,21,33.63,21h-4.71c-0.32,0-0.45-0.16-0.39-0.48l4.26-20.13
		C32.85,0.13,33.02,0,33.3,0h5.46c0.28,0,0.45,0.13,0.51,0.39l4.26,20.13v0.12c0,0.24-0.14,0.36-0.42,0.36h-4.83
		C37.98,21,37.82,20.86,37.8,20.58z M35.22,13.83h1.41c0.14,0,0.19-0.06,0.15-0.18l-0.81-5.4c-0.02-0.08-0.05-0.12-0.09-0.12
		s-0.07,0.04-0.09,0.12l-0.72,5.4C35.07,13.77,35.12,13.83,35.22,13.83z"/>
</g>
</svg>
