<svg version="1.1" id="Layer_1" xmlns="http://www.w3.org/2000/svg" xmlns:xlink="http://www.w3.org/1999/xlink" x="0px" y="0px"
	 viewBox="0 0 84.24 21" width="100%" height="100%" preserveAspectRatio="none">
<g>
	<path d="M13.77,0.12c0.08,0.08,0.12,0.19,0.12,0.33v3.93c0,0.14-0.04,0.25-0.12,0.33c-0.08,0.08-0.19,0.12-0.33,0.12H9.9
		c-0.12,0-0.18,0.06-0.18,0.18v15.54c0,0.14-0.04,0.25-0.12,0.33C9.52,20.96,9.41,21,9.27,21H4.53c-0.14,0-0.25-0.04-0.33-0.12
		c-0.08-0.08-0.12-0.19-0.12-0.33V5.01c0-0.12-0.06-0.18-0.18-0.18H0.45c-0.14,0-0.25-0.04-0.33-0.12C0.04,4.63,0,4.52,0,4.38V0.45
		C0,0.31,0.04,0.2,0.12,0.12C0.2,0.04,0.31,0,0.45,0h12.99C13.58,0,13.69,0.04,13.77,0.12z"/>
	<path d="M22.92,20.61l-1.83-7.53c-0.04-0.1-0.08-0.15-0.12-0.15c-0.08,0-0.12,0.06-0.12,0.18v7.44c0,0.14-0.04,0.25-0.12,0.33
		C20.65,20.96,20.54,21,20.4,21h-4.74c-0.14,0-0.25-0.04-0.33-0.12c-0.08-0.08-0.12-0.19-0.12-0.33V0.45c0-0.14,0.04-0.25,0.12-0.33
		C15.41,0.04,15.52,0,15.66,0h6.75c1.2,0,2.27,0.29,3.19,0.85c0.93,0.57,1.65,1.36,2.18,2.37c0.52,1.01,0.78,2.17,0.78,3.46
		c0,1.1-0.19,2.08-0.57,2.96c-0.38,0.87-0.93,1.58-1.65,2.11c-0.08,0.06-0.11,0.14-0.09,0.24l2.43,8.49
		c0.02,0.04,0.03,0.09,0.03,0.15c0,0.24-0.14,0.36-0.42,0.36H23.4C23.14,21,22.98,20.87,22.92,20.61z M21.03,4.83
		c-0.12,0-0.18,0.06-0.18,0.18v3.45c0,0.12,0.06,0.18,0.18,0.18h0.39c0.44,0,0.8-0.17,1.08-0.5c0.28-0.33,0.42-0.79,0.42-1.4
		c0-0.62-0.14-1.1-0.41-1.42c-0.27-0.33-0.64-0.5-1.09-0.5H21.03z"/>
	<path d="M38.88,20.58l-0.33-2.25c0-0.04-0.02-0.08-0.06-0.12c-0.04-0.04-0.09-0.06-0.15-0.06H35.7c-0.06,0-0.11,0.02-0.15,0.06
		c-0.04,0.04-0.06,0.08-0.06,0.12l-0.3,2.25C35.17,20.86,35.01,21,34.71,21H30c-0.32,0-0.45-0.16-0.39-0.48l4.26-20.13
		C33.93,0.13,34.1,0,34.38,0h5.46c0.28,0,0.45,0.13,0.51,0.39l4.26,20.13v0.12c0,0.24-0.14,0.36-0.42,0.36h-4.83
		C39.06,21,38.9,20.86,38.88,20.58z M36.3,13.83h1.41c0.14,0,0.19-0.06,0.15-0.18l-0.81-5.4C37.03,8.17,37,8.13,36.96,8.13
		c-0.04,0-0.07,0.04-0.09,0.12l-0.72,5.4C36.15,13.77,36.2,13.83,36.3,13.83z"/>
	<path d="M47.04,20.61l-4.2-20.13V0.36c0-0.24,0.14-0.36,0.42-0.36h5.16c0.3,0,0.46,0.14,0.48,0.42l1.35,10.62
		c0,0.06,0.03,0.09,0.09,0.09c0.06,0,0.09-0.03,0.09-0.09l1.23-10.62C51.68,0.14,51.84,0,52.14,0h5.01c0.34,0,0.48,0.16,0.42,0.48
		l-4.26,20.13C53.25,20.87,53.08,21,52.8,21h-5.25C47.27,21,47.1,20.87,47.04,20.61z"/>
	<path d="M70.68,4.71c-0.08,0.08-0.19,0.12-0.33,0.12h-5.73c-0.12,0-0.18,0.06-0.18,0.18v2.88c0,0.12,0.06,0.18,0.18,0.18h2.97
		c0.14,0,0.25,0.04,0.33,0.12c0.08,0.08,0.12,0.19,0.12,0.33v3.93c0,0.14-0.04,0.25-0.12,0.33c-0.08,0.08-0.19,0.12-0.33,0.12h-2.97
		c-0.12,0-0.18,0.06-0.18,0.18v2.91c0,0.12,0.06,0.18,0.18,0.18h5.73c0.14,0,0.25,0.04,0.33,0.12c0.08,0.08,0.12,0.19,0.12,0.33
		v3.93c0,0.14-0.04,0.25-0.12,0.33C70.6,20.96,70.49,21,70.35,21h-11.1c-0.14,0-0.25-0.04-0.33-0.12c-0.08-0.08-0.12-0.19-0.12-0.33
		V0.45c0-0.14,0.04-0.25,0.12-0.33C59,0.04,59.11,0,59.25,0h11.1c0.14,0,0.25,0.04,0.33,0.12c0.08,0.08,0.12,0.19,0.12,0.33v3.93
		C70.8,4.52,70.76,4.63,70.68,4.71z"/>
	<path d="M72.24,20.88c-0.08-0.08-0.12-0.19-0.12-0.33V0.45c0-0.14,0.04-0.25,0.12-0.33C72.32,0.04,72.43,0,72.57,0h4.74
		c0.14,0,0.25,0.04,0.33,0.12c0.08,0.08,0.12,0.19,0.12,0.33v15.54c0,0.12,0.06,0.18,0.18,0.18h5.85c0.14,0,0.25,0.04,0.33,0.12
		c0.08,0.08,0.12,0.19,0.12,0.33v3.93c0,0.14-0.04,0.25-0.12,0.33C84.04,20.96,83.93,21,83.79,21H72.57
		C72.43,21,72.32,20.96,72.24,20.88z"/>
</g>
</svg>
