<?xml version="1.0" encoding="utf-8"?>
<!-- Generator: Adobe Illustrator 25.0.0, SVG Export Plug-In . SVG Version: 6.00 Build 0)  -->
<svg version="1.1" id="Layer_1" xmlns="http://www.w3.org/2000/svg" xmlns:xlink="http://www.w3.org/1999/xlink" x="0px" y="0px"
	 viewBox="0 0 44.1 25.6" style="enable-background:new 0 0 44.1 25.6;" xml:space="preserve">
<path d="M44.1,24.9c-1.6,0.4-2.6,0-3.5-1.3l-6.3-8.8l-0.9-1.2l-7.4,10c-0.8,1.2-1.7,1.7-3.3,1.3l9.5-12.7L23.3,0.7
	c1.5-0.3,2.6-0.1,3.5,1.2l6.6,8.9L40,2c0.8-1.2,1.8-1.7,3.3-1.2l-3.4,4.5l-4.6,6c-0.6,0.7-0.5,1.2,0,1.8L44.1,24.9z M0,12l0.8-3.8
	c2.1-7.5,10.7-10.7,16.7-6c3.5,2.7,4.3,6.6,4.2,10.9H2c-0.3,7.8,5.3,12.5,12.5,10.1c2.5-0.8,4-2.8,4.7-5.3c0.4-1.2,1-1.4,2.2-1.1
	c-0.6,3.1-1.9,5.7-4.8,7.3c-4.2,2.4-10.2,1.6-13.4-1.7c-1.9-1.9-2.7-4.4-3-7C0.2,15,0.1,14.6,0,14.1C0,13.4,0,12.7,0,12L0,12z
	 M2.1,11.5h17.7c-0.1-5.6-3.6-9.7-8.4-9.7C6.1,1.7,2.3,5.7,2.1,11.5z"/>
</svg>
