<?xml version="1.0" encoding="utf-8"?>
<!-- Generator: Adobe Illustrator 25.0.0, SVG Export Plug-In . SVG Version: 6.00 Build 0)  -->
<svg version="1.1" id="Layer_1" xmlns="http://www.w3.org/2000/svg" xmlns:xlink="http://www.w3.org/1999/xlink" x="0px" y="0px"
	 viewBox="0 0 44.3 50" style="enable-background:new 0 0 44.3 50;" xml:space="preserve">
<g id="drawing" transform="translate(0.000000,512.000000) scale(0.100000,-0.100000)">
	<path d="M354.7,5117.8c-8.7-3.6-11.8-6-30-23.3c-9.3-8.7-20.6-19.1-24.9-22.9c-4.4-3.8-10-9.1-12.4-11.8
		c-2.5-2.6-12.8-14-23.1-25.4c-85.4-94-160.8-182.8-224.2-263.8c-6.8-8.6-12.6-16.2-12.9-16.8C26.3,4752.2,0,4629,0,4626.3
		c0-3,3.2-6.3,6.3-6.3c6.1,0,67.3,25.1,113.2,46.4l11.1,5.1l16.4,18.1c46.9,51.7,116.6,132.8,198.3,230.5
		c22.4,26.7,43.7,51.9,47.7,55.9c9.8,10.1,30.9,36.3,42.3,52.6c9.1,12.8,10.3,22.9,4.2,35.4c-2.6,5.4-5.8,9.2-17.1,20.4
		c-19.2,19.1-34,29.9-46.6,33.8C367.5,5120.7,361.7,5120.6,354.7,5117.8z M377.2,5103.2c9-4.6,21.9-14.6,34-26.6
		c13.2-12.9,18.3-20.2,18.3-26.4c0-4.5-3.3-11.3-9-18.4c-2.4-2.9-7.7-9.8-12-15.4l-7.6-10.2l-2.1,1.9
		c-14.5,12.7-19.1,16.7-26.7,22.9c-4.8,4.1-18,14.8-29.4,23.9c-11.3,9.1-20.6,17-20.6,17.6c0,2.1,30.4,29.3,35.3,31.7
		C363.5,5107.1,370.1,5106.7,377.2,5103.2z M334.9,5043.5c28.2-22.6,56.4-46.7,56.4-48.2c-0.1-0.7-2.3-3.5-4.9-6.5l-4.8-5.2
		l-12.6,11.5c-15.9,14.6-37.1,32.5-54.7,46.1c-7.6,5.9-13.9,10.8-14.1,11c-0.7,0.5,9,10.1,10.2,10.1
		C311,5062.3,322,5053.8,334.9,5043.5z M300.7,5034.7l10.3-8l-2.4-2.5c-1.3-1.4-10.7-11.6-20.9-22.7
		c-77.7-84-164.7-182.9-221.5-251.6l-9.8-11.9l-9.2-1.2c-5.1-0.6-9.4-0.9-9.7-0.7c-0.2,0.3,0.2,3.1,1,6.3c1.3,4.9,3.3,8.1,16,24.2
		c58.6,74.7,130.5,159.6,208.3,245.5c13.8,15.3,25.5,28.4,26.1,29.2c0.5,0.8,1.1,1.4,1.3,1.4C290.2,5042.7,295,5039,300.7,5034.7z
		 M334.9,5007.1l11.3-9.6l-15.5-16.9c-68.4-74.4-138.7-154.7-204.8-234.2l-30.9-37l-9-0.7c-14.1-1.1-13.4-1.5-16.1,8.8
		c-1.2,4.9-2.3,9.6-2.3,10.6c0,2.6,55.7,68.8,110.4,131.1c62.9,71.7,142,158.2,144.2,157.7C322.9,5016.8,328.6,5012.4,334.9,5007.1z
		 M364.6,4980.6l7.2-7.3l-36-43.1c-83.1-99-141.9-167.7-193.8-225.5c-16-17.8-20.2-22-24.3-23.9c-2.6-1.3-5.1-2.1-5.4-1.8
		c-0.3,0.2-1.7,5.4-3.2,11.5l-2.7,11l29.9,36c61.4,73.6,125.3,147,191.2,219.3c12.7,13.9,24.1,26.6,25.4,28.1
		c1.3,1.6,2.8,2.8,3.4,2.8C357,4987.7,360.7,4984.5,364.6,4980.6z M57.4,4712.1c2.3-9.4,3.5-12.6,5.7-14.9l2.7-2.9l14,0.6l14,0.7
		l2.1-8.6c3.8-16,4.1-14.2-2.9-17.4c-22.5-9.9-32.7-14.2-33.5-14.2c-0.6,0-5,3.3-9.9,7.5c-4.8,4.1-12.3,10.2-16.4,13.5
		c-4.9,3.8-7.5,6.5-7.2,7.5c0.2,0.8,2,9.2,4,18.6c2,9.4,3.9,17.6,4.4,18.1c0.8,0.7,12.6,2.8,18.6,3.3
		C54.1,4723.9,55.2,4721.1,57.4,4712.1z M36.2,4656.3c4.3-3.5,7.8-6.7,7.9-7.1c0-1-27-11.4-27.3-10.4c-0.4,0.8,2.7,16.4,4.8,24.6
		l1,3.7l2.7-2.3C27,4663.6,31.8,4659.8,36.2,4656.3z"/>
</g>
</svg>
