<?xml version="1.0" encoding="utf-8"?>
<!-- Generator: Adobe Illustrator 25.0.0, SVG Export Plug-In . SVG Version: 6.00 Build 0)  -->
<svg version="1.1" id="Layer_1" xmlns="http://www.w3.org/2000/svg" xmlns:xlink="http://www.w3.org/1999/xlink" x="0px" y="0px"
	 viewBox="0 0 44.1 43" style="enable-background:new 0 0 44.1 43;" xml:space="preserve">
<style type="text/css">
	.st0{fill:#012039;}
	.st1{fill:#31A7FC;}
	.st2{fill:#30A6FC;}
</style>
<g id="Logo_artwork">
</g>
<g id="ps">
	<path class="st0" d="M13.9,15c0-0.1,0-0.2,0-0.2c0-0.1,0-0.1,0-0.2c1.5-0.2,3.1-0.3,4.5,0.4c1.5,0.8,1.9,3.2,0.8,4.5
		c-1,1.1-3.9,1.7-5.3,1.1"/>
	<path class="st0" d="M36,0H8C3.6,0,0,3.6,0,8v26.9c0,4.4,3.6,8,8,8h28c4.4,0,8-3.6,8-8V8C44.1,3.6,40.5,0,36,0z"/>
	<path class="st1" d="M13.8,24.3c0,1.1,0,2.1,0,3.1s0,2,0,3c-1.4,0-2.7,0-4,0c0-6.5,0-13,0-19.6c3,0,5.9-0.4,8.8,0.2
		c3,0.7,4.9,2.7,5.2,5.5c0.3,3.2-0.9,5.8-3.6,6.9c-1.3,0.5-2.8,0.6-4.3,0.9C15.3,24.4,14.6,24.3,13.8,24.3z M13.9,14.6
		c0,0.1,0,0.1,0,0.2c0,0.1,0,0.2,0,0.2c0,1.9,0,3.7,0,5.6c1.4,0.6,4.3,0,5.3-1.1c1.1-1.3,0.7-3.7-0.8-4.5
		C16.9,14.2,15.4,14.4,13.9,14.6z"/>
	<path class="st2" d="M25.8,26.3c1,0.3,1.9,0.7,2.8,0.9c0.9,0.2,1.9,0.2,2.8,0.2c0.5,0,1.2-0.2,1.1-0.8c0-0.4-0.4-0.8-0.8-1.1
		c-0.5-0.3-1.1-0.5-1.6-0.7c-0.8-0.4-1.6-0.7-2.4-1.2c-2.7-1.8-2.5-5.7,0.4-7.3c0.7-0.4,1.6-0.7,2.4-0.7c1.5,0,3.1,0.2,4.7,0.3
		c0.6,0,0.8,0.4,0.8,1c0,0.7,0,1.4,0,2.1c0,0.9-0.1,0.9-0.8,0.6c-1.3-0.6-2.7-0.8-4.1-0.6c-0.5,0-1.1,0.2-1.2,0.8
		c-0.1,0.6,0.4,0.9,0.8,1.1c1.3,0.7,2.7,1.2,4,1.9c2.1,1.2,2.7,3.7,1.4,5.8c-0.7,1.1-1.7,1.8-3,2.1c-2.2,0.6-4.4,0.4-6.5-0.3
		c-0.6-0.2-0.8-0.5-0.7-1.1C25.8,28.2,25.8,27.3,25.8,26.3z"/>
</g>
</svg>
