<?xml version="1.0" encoding="utf-8"?>
<!-- Generator: Adobe Illustrator 25.0.0, SVG Export Plug-In . SVG Version: 6.00 Build 0)  -->
<svg version="1.1" id="Layer_1" xmlns="http://www.w3.org/2000/svg" xmlns:xlink="http://www.w3.org/1999/xlink" x="0px" y="0px"
	 viewBox="0 0 44.1 39.2" style="enable-background:new 0 0 44.1 39.2;" xml:space="preserve">
<style type="text/css">
	.st0{fill:#53C1DE;}
	.st1{fill:#FFFFFF;}
</style>
<g id="Logo_artwork">
</g>
<g id="react_1_">
	<path class="st0" d="M36.2,12.7c-0.5-0.2-0.9-0.3-1.4-0.4c0.1-0.3,0.2-0.6,0.2-1c1.1-5.2,0.4-9.4-2-10.8c-2.3-1.3-6.1,0.1-9.9,3.4
		c-0.4,0.3-0.7,0.7-1.1,1c-0.2-0.2-0.5-0.5-0.7-0.7c-4-3.5-8-5-10.4-3.6c-2.3,1.3-3,5.3-2,10.2c0.1,0.5,0.2,1,0.3,1.5
		c-0.6,0.2-1.1,0.3-1.6,0.5C3,14.4,0,16.9,0,19.6c0,2.7,3.2,5.5,8.1,7.1c0.4,0.1,0.8,0.3,1.2,0.4c-0.1,0.5-0.2,1.1-0.3,1.6
		c-0.9,4.9-0.2,8.7,2.1,10c2.4,1.4,6.3,0,10.2-3.4c0.3-0.3,0.6-0.6,0.9-0.8c0.4,0.4,0.8,0.7,1.2,1.1c3.7,3.2,7.4,4.5,9.7,3.2
		c2.4-1.4,3.1-5.5,2.1-10.5c-0.1-0.4-0.2-0.8-0.3-1.2c0.3-0.1,0.6-0.2,0.8-0.3c5.1-1.7,8.3-4.4,8.3-7.1C44.1,16.9,41,14.3,36.2,12.7
		L36.2,12.7L36.2,12.7z"/>
	<path class="st1" d="M35.1,24.9c-0.2,0.1-0.5,0.2-0.7,0.2c-0.6-1.8-1.3-3.6-2.2-5.6c0.9-1.9,1.6-3.7,2.1-5.5
		c0.5,0.1,0.9,0.3,1.3,0.4c4.1,1.4,6.6,3.5,6.6,5.1C42.2,21.3,39.5,23.5,35.1,24.9L35.1,24.9L35.1,24.9z M33.3,28.5
		c0.4,2.2,0.5,4.2,0.2,5.8c-0.3,1.4-0.8,2.4-1.4,2.7c-1.4,0.8-4.4-0.2-7.6-3c-0.4-0.3-0.7-0.7-1.1-1c1.2-1.4,2.5-2.9,3.7-4.7
		c2.1-0.2,4.1-0.5,6-0.9C33.2,27.8,33.3,28.2,33.3,28.5L33.3,28.5L33.3,28.5z M15,36.9c-1.4,0.5-2.4,0.5-3.1,0.1
		c-1.4-0.8-2-3.9-1.2-8c0.1-0.5,0.2-1,0.3-1.5c1.8,0.4,3.8,0.7,5.9,0.9c1.2,1.7,2.5,3.3,3.8,4.7c-0.3,0.3-0.6,0.5-0.8,0.8
		C18.2,35.3,16.5,36.4,15,36.9L15,36.9L15,36.9z M8.7,24.9c-2.1-0.7-3.9-1.7-5.1-2.7c-1.1-0.9-1.6-1.9-1.6-2.6c0-1.6,2.4-3.7,6.4-5
		c0.5-0.2,1-0.3,1.5-0.5c0.6,1.8,1.3,3.7,2.1,5.6c-0.9,1.9-1.6,3.8-2.2,5.6C9.4,25.1,9,25,8.7,24.9L8.7,24.9L8.7,24.9z M10.8,10.4
		C10,6.2,10.5,3,11.9,2.2c1.5-0.9,4.7,0.4,8.2,3.4c0.2,0.2,0.4,0.4,0.7,0.6c-1.3,1.4-2.5,2.9-3.8,4.6c-2.1,0.2-4.1,0.5-5.9,0.9
		C11,11.3,10.9,10.9,10.8,10.4L10.8,10.4L10.8,10.4z M29.8,15.1c-0.4-0.8-0.9-1.5-1.3-2.2c1.4,0.2,2.8,0.4,4,0.7
		c-0.4,1.2-0.9,2.5-1.4,3.8C30.7,16.6,30.2,15.9,29.8,15.1L29.8,15.1L29.8,15.1z M22.1,7.6c0.9,0.9,1.7,2,2.6,3.1
		c-0.9,0-1.7-0.1-2.6-0.1c-0.9,0-1.7,0-2.6,0.1C20.3,9.6,21.2,8.5,22.1,7.6L22.1,7.6L22.1,7.6z M14.3,15.1c-0.4,0.8-0.9,1.5-1.2,2.3
		c-0.5-1.3-1-2.6-1.4-3.8c1.3-0.3,2.6-0.5,4-0.7C15.1,13.6,14.7,14.4,14.3,15.1L14.3,15.1L14.3,15.1z M15.6,26.4
		c-1.4-0.2-2.8-0.4-4.1-0.7c0.4-1.3,0.9-2.6,1.4-3.9c0.4,0.8,0.8,1.5,1.2,2.3h0C14.7,24.9,15.2,25.6,15.6,26.4L15.6,26.4L15.6,26.4z
		 M22.1,31.7c-0.9-1-1.8-2-2.7-3.2c0.8,0,1.7,0.1,2.6,0.1c0.9,0,1.8,0,2.7-0.1C23.8,29.7,23,30.8,22.1,31.7L22.1,31.7L22.1,31.7z
		 M31.1,21.8c0.6,1.3,1.1,2.6,1.5,3.9c-1.3,0.3-2.7,0.5-4.1,0.7c0.5-0.7,0.9-1.5,1.4-2.2C30.3,23.3,30.7,22.5,31.1,21.8L31.1,21.8
		L31.1,21.8z M28.2,23.1c-0.7,1.2-1.4,2.3-2.1,3.4c-1.3,0.1-2.7,0.1-4,0.1c-1.4,0-2.7,0-4-0.1c-0.7-1.1-1.5-2.2-2.2-3.4h0
		c-0.7-1.2-1.3-2.4-1.9-3.5c0.6-1.2,1.2-2.4,1.9-3.6l0,0c0.7-1.2,1.4-2.3,2.1-3.4c1.3-0.1,2.7-0.2,4-0.2h0c1.4,0,2.7,0.1,4,0.2
		c0.7,1.1,1.4,2.2,2.1,3.4c0.7,1.2,1.3,2.4,1.9,3.5C29.5,20.8,28.9,22,28.2,23.1L28.2,23.1L28.2,23.1z M32.1,2.1
		c1.5,0.9,2,4.3,1.1,8.8c-0.1,0.3-0.1,0.6-0.2,0.9c-1.8-0.4-3.8-0.7-5.9-0.9c-1.2-1.7-2.5-3.3-3.7-4.6c0.3-0.3,0.7-0.6,1-0.9
		C27.6,2.4,30.7,1.3,32.1,2.1L32.1,2.1L32.1,2.1z"/>
	<path class="st0" d="M22,15.6c2.2,0,3.9,1.8,3.9,3.9c0,2.2-1.8,3.9-3.9,3.9s-3.9-1.8-3.9-3.9C18.1,17.4,19.9,15.6,22,15.6"/>
</g>
</svg>
