<?xml version="1.0" encoding="utf-8"?>
<!-- Generator: Adobe Illustrator 25.0.0, SVG Export Plug-In . SVG Version: 6.00 Build 0)  -->
<svg version="1.1" id="Layer_1" xmlns="http://www.w3.org/2000/svg" xmlns:xlink="http://www.w3.org/1999/xlink" x="0px" y="0px"
	 viewBox="0 0 44.1 43.7" style="enable-background:new 0 0 44.1 43.7;" xml:space="preserve">
<style type="text/css">
	.st0{fill:#91B6E1;}
	.st1{fill:#F9A74B;}
</style>
<g>
	<path class="st0" d="M21.5,0c4,0,7.9,0.8,11.5,2.6c2.5,1.3,4.7,3.1,6.5,5.3c2.2,2.6,3.4,5.7,4.1,9c0.2,1,0.3,2,0.4,3.1
		c0.3,3.3-0.3,6.5-1.5,9.6c-0.9,2.3-2.1,4.4-3.7,6.3c-2.1,2.5-4.7,4.4-7.6,5.8c-2,0.9-4.1,1.6-6.3,1.8c-1.3,0.1-2.7,0.3-4.1,0.2
		c-4.6-0.2-8.7-1.6-12.2-4.5c-4.1-3.3-6.6-7.6-7.9-12.7C0.3,25,0.1,23.5,0,22c-0.2-3.7,0.5-7.2,2.1-10.6C3.3,9,5,6.8,7.1,5.1
		c2.5-2.1,5.5-3.5,8.7-4.3c1.4-0.3,2.8-0.5,4.1-0.6C20.5,0,21,0,21.5,0z M8.9,5.6C7.8,6.4,6.8,7.3,6,8.4C2.6,12.9,1.7,18,2.6,23.5
		C3,26.2,4,28.7,5.5,31c1.8,2.9,4.1,5.2,7.1,6.7c4,2,8.3,2.4,12.6,1.5c4.2-0.8,7.7-2.9,10.4-6.1c3.3-4,4.7-8.6,4.2-13.7
		c-0.2-1.9-0.7-3.7-1.4-5.5c-1.2-2.9-3.9-3.8-6.5-2.7c-1.4,0.6-2.4,1.6-3.3,2.8c-1.4,1.9-2.3,4-3.3,6c-1.5,3-3,6-4.6,9
		c-0.6,1.2-1.4,2.3-2.5,3.1c-1.2,1-2.5,1.2-3.9,0.2c-0.6-0.5-1.2-1.1-1.8-1.7C11,28.9,9.9,26.9,9,24.8c-1.4-3.2-2.2-6.5-2.3-10
		c0-0.9,0.1-1.8,0.2-2.8C6.9,10.5,7.4,9,8,7.6C8.3,6.9,8.6,6.3,8.9,5.6z M36.3,6.5c-1.3-1.1-2.7-1.9-4.1-2.7c-3-1.7-6.3-2.5-9.7-2.6
		c-1.6-0.1-3.3,0.1-4.9,0.4c-0.8,0.2-1.7,0.2-2.3,0.7c-1.9,1.2-3.3,2.8-4.1,4.9c-0.7,2.1-1,4.2-0.9,6.4c0.1,1.8,0.4,3.6,0.8,5.3
		c0.5,2.2,1.5,4.2,2.6,6.2c0.4,0.8,1,1.6,1.7,2.2c0.4,0.4,0.7,0.3,1-0.1c0.3-0.3,0.5-0.7,0.7-1.1c0.8-1.4,1.6-2.9,2.3-4.3
		c1.3-2.6,2.6-5.2,3.9-7.8c1.2-2.3,2.7-4.4,4.9-5.9c2-1.4,4.3-2.1,6.8-1.8C35.4,6.3,35.8,6.4,36.3,6.5z"/>
	<path class="st1" d="M21.9,2.5c1.2,0.1,2.3,0.1,3.3,0.3c0.8,0.1,1.5,0.4,2.3,0.6c0.2,0.1,0.4,0.2,0.6,0.4c0.4,0.3,0.4,0.7,0,1
		c-0.6,0.5-1.3,0.7-2,0.8c-1.7,0.4-3.4,0.5-5.2,0.4c-1.2-0.1-2.4-0.2-3.6-0.7C17,5.3,16.7,5.2,16.4,5c-0.6-0.4-0.6-0.9,0-1.3
		c0.7-0.4,1.4-0.7,2.2-0.8C19.7,2.7,20.9,2.6,21.9,2.5z"/>
</g>
</svg>
