<?xml version="1.0" encoding="utf-8"?>
<!-- Generator: Adobe Illustrator 25.0.0, SVG Export Plug-In . SVG Version: 6.00 Build 0)  -->
<svg version="1.1" id="Layer_1" xmlns="http://www.w3.org/2000/svg" xmlns:xlink="http://www.w3.org/1999/xlink" x="0px" y="0px"
	 viewBox="0 0 44.1 43.6" style="enable-background:new 0 0 44.1 43.6;" xml:space="preserve">
<style type="text/css">
	.st0{fill:#0877B9;}
	.st1{fill:#2489CA;}
	.st2{fill:#3C99D4;}
</style>
<g id="Logo_artwork">
</g>
<g id="vs_code">
	<path class="st0" d="M33.1,1.7c0,0-0.6-2.2-2.4-1l-23.1,21l-7.1,6.5c0,0-0.7,0.5,0,1.5l3.3,3c0,0,0.8,0.8,1.9-0.1l7.6-5.7
		l19.9-15.2L33.1,1.7z"/>
	<path class="st1" d="M0.4,15.2c0,0-1.1-0.8,0.2-1.8l3-2.7c0,0,0.9-0.9,1.8-0.1l27.7,21v10.1c0,0,0,1.6-2,1.4L0.4,15.2z"/>
	<path class="st2" d="M31,43c0.8,0.8,1.7,0.5,1.7,0.5l10.2-5c1.3-0.9,1.1-2,1.1-2v-30c0-1.3-1.4-1.8-1.4-1.8l-8.8-4.3
		C32-0.7,30.4,1,30.4,1s1.8-1.6,2.6,0.6v39.7c0,0.3-0.1,0.5-0.2,0.8C32.7,42.7,32.2,43.1,31,43L31,43z"/>
</g>
</svg>
